<svg width="150" height="113" viewBox="0 0 150 113" fill="none" xmlns="http://www.w3.org/2000/svg">
<path d="M150 98.7207H0V98.7957H150V98.7207Z" fill="#E6E6E6"/>
<path d="M113.3 101.896H102.979V101.971H113.3V101.896Z" fill="#E6E6E6"/>
<path d="M33.3121 101.936H27.5044V102.011H33.3121V101.936Z" fill="#E6E6E6"/>
<path d="M75.3 101.76H63.5283V101.835H75.3V101.76Z" fill="#E6E6E6"/>
<path d="M63.2281 100.691H57.9658V100.766H63.2281V100.691Z" fill="#E6E6E6"/>
<path d="M127.367 100.73H111.471V100.805H127.367V100.73Z" fill="#E6E6E6"/>
<path d="M71.104 85.3407H13.1743C12.2302 85.3407 11.4619 84.5724 11.4619 83.6283V2.19873C11.4619 1.25463 12.2302 0.486328 13.1743 0.486328H71.104C72.0478 0.486328 72.8161 1.25463 72.8161 2.19873V83.6283C72.8161 84.5724 72.0478 85.3407 71.104 85.3407ZM13.1743 0.561628C12.2713 0.561628 11.5369 1.29603 11.5369 2.19903V83.6286C11.5369 84.5316 12.2713 85.266 13.1743 85.266H71.104C72.0067 85.266 72.7411 84.5316 72.7411 83.6286V2.19873C72.7411 1.29603 72.0067 0.561328 71.104 0.561328L13.1743 0.561628Z" fill="#E6E6E6"/>
<path d="M135.993 85.3407H78.0637C77.1199 85.3407 76.3516 84.5724 76.3516 83.6283V2.19873C76.3516 1.25463 77.1199 0.486328 78.0637 0.486328H135.993C136.937 0.486328 137.705 1.25463 137.705 2.19873V83.6283C137.706 84.5724 136.937 85.3407 135.993 85.3407ZM78.0637 0.561628C77.161 0.561628 76.4266 1.29603 76.4266 2.19903V83.6286C76.4266 84.5316 77.161 85.266 78.0637 85.266H135.993C136.896 85.266 137.63 84.5316 137.63 83.6286V2.19873C137.63 1.29603 136.896 0.561328 135.993 0.561328L78.0637 0.561628Z" fill="#E6E6E6"/>
<path d="M60.2673 27.0801H42.2583V46.7943H60.2673V27.0801Z" fill="#E0E0E0"/>
<path d="M62.7979 27.0801H43.2319V46.7943H62.7979V27.0801Z" fill="#FAFAFA"/>
<path d="M60.7798 44.7757V29.0977L45.2497 29.0977V44.7757H60.7798Z" fill="white"/>
<path d="M48.895 36.9367C48.895 34.8919 50.5525 33.2344 52.5973 33.2344H53.4319C55.4767 33.2344 57.1342 34.8919 57.1342 36.9367C57.1342 38.9815 55.4767 40.639 53.4319 40.639H52.5973C50.5525 40.639 48.895 38.9815 48.895 36.9367Z" fill="#F5F5F5"/>
<path d="M27.6736 31.7818C22.4575 31.7818 18.229 27.5533 18.229 22.3372C18.229 17.1211 22.4575 12.8926 27.6736 12.8926H29.3788V31.7821H27.6736V31.7818Z" fill="#E0E0E0"/>
<path d="M29.379 31.7824C34.5953 31.7824 38.8239 27.5538 38.8239 22.3375C38.8239 17.1212 34.5953 12.8926 29.379 12.8926C24.1627 12.8926 19.9341 17.1212 19.9341 22.3375C19.9341 27.5538 24.1627 31.7824 29.379 31.7824Z" fill="#FAFAFA"/>
<path d="M29.3789 29.459C33.3118 29.459 36.5 26.2708 36.5 22.3379C36.5 18.405 33.3118 15.2168 29.3789 15.2168C25.446 15.2168 22.2578 18.405 22.2578 22.3379C22.2578 26.2708 25.446 29.459 29.3789 29.459Z" fill="white"/>
<path d="M32.3129 25.0005L28.8164 22.5615L29.9246 17.166L30.9155 17.3697L29.9417 22.1124L32.8919 24.1707L32.3129 25.0005Z" fill="#E0E0E0"/>
<path d="M105.703 65.002H92.8301V99.7833H105.703V65.002Z" fill="#E0E0E0"/>
<path d="M102.266 99.784H105.703V94.0234H98.6616L102.266 99.784Z" fill="#FAFAFA"/>
<path d="M28.5263 65.002H15.6533V99.7833H28.5263V65.002Z" fill="#E0E0E0"/>
<path d="M105.703 65.002H25.5264V97.8004H105.703V65.002Z" fill="#FAFAFA"/>
<path d="M28.9638 99.784H25.5264V94.0234H32.568L28.9638 99.784Z" fill="#FAFAFA"/>
<path d="M103.037 67.8223H28.1929V79.8952H103.037V67.8223Z" fill="#F0F0F0"/>
<path d="M103.037 82.8105H28.1929V94.8834H103.037V82.8105Z" fill="#F0F0F0"/>
<path d="M92.0623 67.8223H28.1929V79.8952H92.0623V67.8223Z" fill="#E0E0E0"/>
<path d="M47.8631 69.4512H43.9772C43.9772 69.4512 44.6519 71.7804 44.6519 73.1514C44.6519 74.5221 41.6963 79.8954 45.9203 79.8954C50.144 79.8954 47.1887 74.5221 47.1887 73.1514C47.1884 71.7807 47.8631 69.4512 47.8631 69.4512Z" fill="#FAFAFA"/>
<path d="M32.5679 73.5V75.6213C32.5679 77.9715 34.8407 79.8942 37.619 79.8942H40.1264C42.9044 79.8942 45.1775 77.9715 45.1775 75.6213V73.5H32.5679Z" fill="#F0F0F0"/>
<path d="M92.0623 82.8105H28.1929V94.8834H92.0623V82.8105Z" fill="#E0E0E0"/>
<path d="M64.0638 94.666H70.0464V84.7018H64.0638V94.666Z" fill="white"/>
<path d="M69.1155 94.8203H69.522V84.8561H69.1155V94.8203Z" fill="#E6E6E6"/>
<path d="M69.5533 94.8972H70.597C70.6768 94.8972 70.7416 94.8324 70.7416 94.7526V84.9258C70.7416 84.846 70.6768 84.7812 70.597 84.7812H69.5533C69.4735 84.7812 69.4087 84.846 69.4087 84.9258V94.7526C69.4087 94.8324 69.4735 94.8972 69.5533 94.8972Z" fill="#EBEBEB"/>
<path d="M69.4088 89.4551H70.7417V87.0914H69.4088V89.4551Z" fill="white"/>
<path d="M69.4088 91.6406H70.7417V90.1832H69.4088V91.6406Z" fill="white"/>
<path d="M63.7618 94.8972H69.1507C69.2305 94.8972 69.2953 94.8324 69.2953 94.7526V84.9258C69.2953 84.846 69.2305 84.7812 69.1507 84.7812H63.7618C63.682 84.7812 63.6172 84.846 63.6172 84.9258V94.7526C63.6169 94.8324 63.6817 94.8972 63.7618 94.8972Z" fill="#EBEBEB"/>
<path d="M61.1483 94.6426H67.748V83.6509H61.1483V94.6426Z" fill="white"/>
<path d="M66.7214 94.8145H67.1699V83.8228H66.7214V94.8145Z" fill="#E6E6E6"/>
<path d="M67.204 94.8977H68.3554C68.4436 94.8977 68.515 94.8263 68.515 94.7381V83.8979C68.515 83.8097 68.4436 83.7383 68.3554 83.7383H67.204C67.1158 83.7383 67.0444 83.8097 67.0444 83.8979V94.7381C67.0447 94.8263 67.1161 94.8977 67.204 94.8977Z" fill="#F0F0F0"/>
<path d="M67.0448 87.6738H68.5151V87.294H67.0448V87.6738Z" fill="white"/>
<path d="M67.0448 88.7754H68.5151V88.3956H67.0448V88.7754Z" fill="white"/>
<path d="M67.0448 89.877H68.5151V89.4972H67.0448V89.877Z" fill="white"/>
<path d="M60.8154 94.8977H66.7602C66.8484 94.8977 66.9198 94.8263 66.9198 94.7381V83.8979C66.9198 83.8097 66.8484 83.7383 66.7602 83.7383H60.8154C60.7272 83.7383 60.6558 83.8097 60.6558 83.8979V94.7381C60.6558 94.8263 60.7272 94.8977 60.8154 94.8977Z" fill="#F0F0F0"/>
<path d="M53.0154 91.0678C53.0154 92.0017 52.2585 92.7586 51.3246 92.7586C50.3907 92.7586 49.6338 92.0017 49.6338 91.0678C49.6338 90.1339 50.3907 89.377 51.3246 89.377C52.2585 89.3773 53.0154 90.1342 53.0154 91.0678Z" fill="#FAFAFA"/>
<path d="M50.1324 91.8745C50.1324 92.6044 49.5405 93.1963 48.8106 93.1963C48.0807 93.1963 47.4888 92.6047 47.4888 91.8745C47.4888 91.1443 48.0807 90.5527 48.8106 90.5527C49.5405 90.5527 50.1324 91.1443 50.1324 91.8745Z" fill="#FAFAFA"/>
<path d="M55.9094 91.8744C55.9094 92.8083 55.1525 93.5652 54.2186 93.5652C53.2847 93.5652 52.5278 92.8083 52.5278 91.8744C52.5278 90.9405 53.2847 90.1836 54.2186 90.1836C55.1525 90.1833 55.9094 90.9405 55.9094 91.8744Z" fill="#FAFAFA"/>
<path d="M58.6824 91.3783C58.6824 92.3122 57.9255 93.0691 56.9916 93.0691C56.0577 93.0691 55.3008 92.3122 55.3008 91.3783C55.3008 90.4444 56.0577 89.6875 56.9916 89.6875C57.9255 89.6875 58.6824 90.4447 58.6824 91.3783Z" fill="#FAFAFA"/>
<path d="M44.1538 91.5996C44.1538 91.5996 44.386 94.8984 53.2858 94.8984C62.1856 94.8984 62.4178 91.5996 62.4178 91.5996H44.1538Z" fill="#F5F5F5"/>
<path d="M69.1152 76.5957C69.1152 76.5957 69.4833 79.8945 83.5881 79.8945C97.6929 79.8945 98.061 76.5957 98.061 76.5957H69.1152Z" fill="white"/>
<path d="M75.0002 112.268C107.125 112.268 133.167 110.748 133.167 108.872C133.167 106.995 107.125 105.475 75.0002 105.475C42.8756 105.475 16.8335 106.995 16.8335 108.872C16.8335 110.748 42.8756 112.268 75.0002 112.268Z" fill="#F5F5F5"/>
<path d="M44.078 63.8995C50.4234 57.5541 50.4234 47.2662 44.078 40.9208C37.7326 34.5754 27.4447 34.5754 21.0992 40.9208C14.7538 47.2662 14.7538 57.5541 21.0992 63.8995C27.4447 70.245 37.7326 70.245 44.078 63.8995Z" fill="#01859A"/>
<path opacity="0.4" d="M44.078 63.8995C50.4234 57.5541 50.4234 47.2662 44.078 40.9208C37.7326 34.5754 27.4447 34.5754 21.0992 40.9208C14.7538 47.2662 14.7538 57.5541 21.0992 63.8995C27.4447 70.245 37.7326 70.245 44.078 63.8995Z" fill="black"/>
<path opacity="0.2" d="M46.0439 54.7056C47.3114 47.2769 42.3168 40.2272 34.8881 38.9597C27.4594 37.6922 20.4097 42.6869 19.1422 50.1156C17.8747 57.5443 22.8693 64.5939 30.298 65.8614C37.7267 67.1289 44.7764 62.1343 46.0439 54.7056Z" fill="black"/>
<path d="M46.5193 53.8828C47.0329 46.6672 41.5999 40.4015 34.3843 39.8879C27.1687 39.3743 20.903 44.8074 20.3894 52.0229C19.8758 59.2385 25.3089 65.5042 32.5244 66.0178C39.74 66.5314 46.0057 61.0984 46.5193 53.8828Z" fill="#01859A"/>
<path opacity="0.4" d="M46.5193 53.8828C47.0329 46.6672 41.5999 40.4015 34.3843 39.8879C27.1687 39.3743 20.903 44.8074 20.3894 52.0229C19.8758 59.2385 25.3089 65.5042 32.5244 66.0178C39.74 66.5314 46.0057 61.0984 46.5193 53.8828Z" fill="black"/>
<path d="M37.9835 51.16L38.8379 54.8631C38.9045 55.1517 38.8538 55.4271 38.6864 55.6887C38.519 55.9506 38.2868 56.1159 37.9898 56.1846L34.7321 56.9362L35.3339 59.5449C35.4026 59.8419 35.3546 60.1191 35.1905 60.3756C35.0264 60.6327 34.7999 60.7942 34.5116 60.8608C34.2062 60.9313 33.9233 60.8872 33.6635 60.7282C33.4034 60.5695 33.2393 60.3415 33.1706 60.0445L32.5628 57.4102L29.3303 58.156C29.042 58.2226 28.7675 58.1767 28.5074 58.0174C28.2473 57.8587 28.0832 57.6306 28.0145 57.3336C27.9458 57.0366 27.9917 56.7604 28.1516 56.5045C28.3115 56.2486 28.5398 56.0865 28.8368 56.0178L36.3959 54.2737L36.0407 52.7338L28.5071 54.4719C28.2101 54.5406 27.9341 54.4968 27.6794 54.3414C27.4244 54.1857 27.2618 53.9551 27.1913 53.65L26.3399 49.9594C26.2715 49.6624 26.3168 49.3864 26.477 49.1305C26.6369 48.8746 26.8652 48.7126 27.1622 48.6439L30.3692 47.9041L29.7671 45.2949C29.7005 45.0066 29.7425 44.7334 29.8928 44.4754C30.0431 44.2177 30.2882 44.049 30.6275 43.9707C30.9158 43.9041 31.1879 43.951 31.4438 44.1109C31.6997 44.2708 31.862 44.4994 31.9304 44.7961L32.5325 47.4051L35.8157 46.6477C36.1127 46.5793 36.3938 46.6261 36.659 46.7881C36.9242 46.9501 37.0904 47.1757 37.157 47.464C37.2257 47.761 37.1765 48.0426 37.01 48.309C36.8435 48.5751 36.6119 48.7425 36.3149 48.8109L28.7558 50.5551L29.108 52.0822L36.6419 50.344C36.9389 50.2756 37.22 50.3224 37.4852 50.4844C37.7507 50.6464 37.9169 50.8714 37.9835 51.16Z" fill="#01859A"/>
<g opacity="0.7">
<path d="M37.9835 51.16L38.8379 54.8631C38.9045 55.1517 38.8538 55.4271 38.6864 55.6887C38.519 55.9506 38.2868 56.1159 37.9898 56.1846L34.7321 56.9362L35.3339 59.5449C35.4026 59.8419 35.3546 60.1191 35.1905 60.3756C35.0264 60.6327 34.7999 60.7942 34.5116 60.8608C34.2062 60.9313 33.9233 60.8872 33.6635 60.7282C33.4034 60.5695 33.2393 60.3415 33.1706 60.0445L32.5628 57.4102L29.3303 58.156C29.042 58.2226 28.7675 58.1767 28.5074 58.0174C28.2473 57.8587 28.0832 57.6306 28.0145 57.3336C27.9458 57.0366 27.9917 56.7604 28.1516 56.5045C28.3115 56.2486 28.5398 56.0865 28.8368 56.0178L36.3959 54.2737L36.0407 52.7338L28.5071 54.4719C28.2101 54.5406 27.9341 54.4968 27.6794 54.3414C27.4244 54.1857 27.2618 53.9551 27.1913 53.65L26.3399 49.9594C26.2715 49.6624 26.3168 49.3864 26.477 49.1305C26.6369 48.8746 26.8652 48.7126 27.1622 48.6439L30.3692 47.9041L29.7671 45.2949C29.7005 45.0066 29.7425 44.7334 29.8928 44.4754C30.0431 44.2177 30.2882 44.049 30.6275 43.9707C30.9158 43.9041 31.1879 43.951 31.4438 44.1109C31.6997 44.2708 31.862 44.4994 31.9304 44.7961L32.5325 47.4051L35.8157 46.6477C36.1127 46.5793 36.3938 46.6261 36.659 46.7881C36.9242 46.9501 37.0904 47.1757 37.157 47.464C37.2257 47.761 37.1765 48.0426 37.01 48.309C36.8435 48.5751 36.6119 48.7425 36.3149 48.8109L28.7558 50.5551L29.108 52.0822L36.6419 50.344C36.9389 50.2756 37.22 50.3224 37.4852 50.4844C37.7507 50.6464 37.9169 50.8714 37.9835 51.16Z" fill="white"/>
</g>
<path d="M67.2628 39.48C71.3045 34.6962 70.703 27.5417 65.9193 23.5C61.1356 19.4584 53.9811 20.0601 49.9393 24.8439C45.8976 29.6278 46.4991 36.7823 51.2828 40.8239C56.0665 44.8656 63.221 44.2639 67.2628 39.48Z" fill="#01859A"/>
<path opacity="0.4" d="M67.2628 39.48C71.3045 34.6962 70.703 27.5417 65.9193 23.5C61.1356 19.4584 53.9811 20.0601 49.9393 24.8439C45.8976 29.6278 46.4991 36.7823 51.2828 40.8239C56.0665 44.8656 63.221 44.2639 67.2628 39.48Z" fill="black"/>
<path opacity="0.2" d="M65.9373 38.2336C69.2882 34.1807 68.7191 28.1788 64.6662 24.828C60.6133 21.4771 54.6114 22.0463 51.2606 26.0991C47.9097 30.152 48.4789 36.1539 52.5317 39.5047C56.5846 42.8556 62.5865 42.2865 65.9373 38.2336Z" fill="black"/>
<path d="M66.2219 38.3243C69.287 34.3137 68.5206 28.5777 64.51 25.5126C60.4994 22.4475 54.7634 23.2139 51.6983 27.2245C48.6332 31.2351 49.3997 36.9711 53.4102 40.0362C57.4208 43.1013 63.1568 42.3348 66.2219 38.3243Z" fill="#01859A"/>
<path opacity="0.4" d="M66.2219 38.3243C69.287 34.3137 68.5206 28.5777 64.51 25.5126C60.4994 22.4475 54.7634 23.2139 51.6983 27.2245C48.6332 31.2351 49.3997 36.9711 53.4102 40.0362C57.4208 43.1013 63.1568 42.3348 66.2219 38.3243Z" fill="black"/>
<path d="M62.3476 33.0996L61.7023 35.6721C61.6522 35.8725 61.5331 36.0276 61.3459 36.1371C61.1587 36.2466 60.9619 36.2757 60.7558 36.2238L58.4929 35.6562L58.0384 37.4685C57.9865 37.6749 57.8689 37.8318 57.6856 37.9392C57.502 38.0469 57.31 38.0751 57.1096 38.025C56.8975 37.9719 56.7358 37.8546 56.6248 37.6731C56.5135 37.4919 56.4841 37.2981 56.5357 37.0917L56.9947 35.2617L54.7495 34.6983C54.5491 34.6479 54.3934 34.5324 54.2821 34.3509C54.1711 34.1697 54.1414 33.9759 54.193 33.7695C54.2446 33.5634 54.361 33.4059 54.5416 33.2979C54.7222 33.1896 54.9157 33.1614 55.1218 33.2133L60.3727 34.5306L60.6409 33.4608L55.4077 32.148C55.2013 32.0961 55.0438 31.9815 54.9349 31.8039C54.826 31.6263 54.7981 31.4313 54.8512 31.2192L55.4944 28.6554C55.546 28.4493 55.6621 28.2921 55.843 28.1838C56.0236 28.0755 56.2171 28.0473 56.4232 28.0992L58.651 28.6581L59.1055 26.8458C59.1559 26.6457 59.2684 26.4891 59.4439 26.3763C59.6191 26.2638 59.8249 26.2371 60.0607 26.2962C60.2608 26.3463 60.4153 26.4618 60.5233 26.6424C60.6316 26.823 60.6598 27.0165 60.6079 27.2226L60.1534 29.0349L62.434 29.607C62.6401 29.6589 62.8 29.7771 62.9134 29.9622C63.0268 30.1473 63.0583 30.3399 63.0082 30.5403C62.9563 30.7467 62.8366 30.906 62.6485 31.0188C62.4607 31.1313 62.2633 31.1616 62.0572 31.11L56.8063 29.7927L56.5402 30.8535L61.7734 32.1663C61.9795 32.2179 62.1394 32.3367 62.2528 32.5215C62.3659 32.7066 62.3977 32.8992 62.3476 33.0996Z" fill="#01859A"/>
<g opacity="0.7">
<path d="M62.3476 33.0996L61.7023 35.6721C61.6522 35.8725 61.5331 36.0276 61.3459 36.1371C61.1587 36.2466 60.9619 36.2757 60.7558 36.2238L58.4929 35.6562L58.0384 37.4685C57.9865 37.6749 57.8689 37.8318 57.6856 37.9392C57.502 38.0469 57.31 38.0751 57.1096 38.025C56.8975 37.9719 56.7358 37.8546 56.6248 37.6731C56.5135 37.4919 56.4841 37.2981 56.5357 37.0917L56.9947 35.2617L54.7495 34.6983C54.5491 34.6479 54.3934 34.5324 54.2821 34.3509C54.1711 34.1697 54.1414 33.9759 54.193 33.7695C54.2446 33.5634 54.361 33.4059 54.5416 33.2979C54.7222 33.1896 54.9157 33.1614 55.1218 33.2133L60.3727 34.5306L60.6409 33.4608L55.4077 32.148C55.2013 32.0961 55.0438 31.9815 54.9349 31.8039C54.826 31.6263 54.7981 31.4313 54.8512 31.2192L55.4944 28.6554C55.546 28.4493 55.6621 28.2921 55.843 28.1838C56.0236 28.0755 56.2171 28.0473 56.4232 28.0992L58.651 28.6581L59.1055 26.8458C59.1559 26.6457 59.2684 26.4891 59.4439 26.3763C59.6191 26.2638 59.8249 26.2371 60.0607 26.2962C60.2608 26.3463 60.4153 26.4618 60.5233 26.6424C60.6316 26.823 60.6598 27.0165 60.6079 27.2226L60.1534 29.0349L62.434 29.607C62.6401 29.6589 62.8 29.7771 62.9134 29.9622C63.0268 30.1473 63.0583 30.3399 63.0082 30.5403C62.9563 30.7467 62.8366 30.906 62.6485 31.0188C62.4607 31.1313 62.2633 31.1616 62.0572 31.11L56.8063 29.7927L56.5402 30.8535L61.7734 32.1663C61.9795 32.2179 62.1394 32.3367 62.2528 32.5215C62.3659 32.7066 62.3977 32.8992 62.3476 33.0996Z" fill="white"/>
</g>
<path d="M30.9772 100.693H30.6772V104.08H30.9772V100.693Z" fill="#01859A"/>
<path opacity="0.1" d="M30.9772 100.693H30.6772V104.08H30.9772V100.693Z" fill="black"/>
<path d="M119.323 73.8574H119.023V78.4999H119.323V73.8574Z" fill="#01859A"/>
<path d="M119.323 80.9336H119.023V83.45H119.323V80.9336Z" fill="#01859A"/>
<path opacity="0.1" d="M119.323 73.8574H119.023V78.4999H119.323V73.8574Z" fill="black"/>
<path opacity="0.1" d="M119.323 80.9336H119.023V83.45H119.323V80.9336Z" fill="black"/>
<path d="M113.758 108.136H36.2423C33.7589 108.136 31.7271 106.104 31.7271 103.621V58.2477C31.7271 55.7643 33.7589 53.7324 36.2423 53.7324H113.758C116.241 53.7324 118.273 55.7643 118.273 58.2477V103.621C118.273 106.104 116.241 108.136 113.758 108.136Z" fill="#01859A"/>
<path opacity="0.2" d="M113.758 108.136H36.2423C33.7589 108.136 31.7271 106.104 31.7271 103.621V58.2477C31.7271 55.7643 33.7589 53.7324 36.2423 53.7324H113.758C116.241 53.7324 118.273 55.7643 118.273 58.2477V103.621C118.273 106.104 116.241 108.136 113.758 108.136Z" fill="black"/>
<path d="M104.264 72.6781C107.356 72.6781 109.863 70.171 109.863 67.0783C109.863 63.9856 107.356 61.4785 104.264 61.4785H97.0363C93.9436 61.4785 91.4365 63.9856 91.4365 67.0783C91.4365 70.171 93.9436 72.6781 97.0363 72.6781H104.264Z" fill="#01859A"/>
<path d="M55.419 85.2876H42.0819C41.0121 85.2876 40.1367 84.4122 40.1367 83.3424V74.6229C40.1367 73.5531 41.0121 72.6777 42.0819 72.6777H55.419C56.4888 72.6777 57.3642 73.5531 57.3642 74.6229V83.3424C57.3639 84.4122 56.4888 85.2876 55.419 85.2876Z" fill="#01859A"/>
<path opacity="0.3" d="M55.419 85.2876H42.0819C41.0121 85.2876 40.1367 84.4122 40.1367 83.3424V74.6229C40.1367 73.5531 41.0121 72.6777 42.0819 72.6777H55.419C56.4888 72.6777 57.3642 73.5531 57.3642 74.6229V83.3424C57.3639 84.4122 56.4888 85.2876 55.419 85.2876Z" fill="white"/>
<path d="M64.6545 62.8538H41.5128C40.7559 62.8538 40.1367 62.2346 40.1367 61.4777C40.1367 60.7208 40.7559 60.1016 41.5128 60.1016H64.6545C65.4114 60.1016 66.0309 60.7208 66.0309 61.4777C66.0306 62.2343 65.4114 62.8538 64.6545 62.8538Z" fill="#01859A"/>
<path opacity="0.3" d="M64.6545 62.8538H41.5128C40.7559 62.8538 40.1367 62.2346 40.1367 61.4777C40.1367 60.7208 40.7559 60.1016 41.5128 60.1016H64.6545C65.4114 60.1016 66.0309 60.7208 66.0309 61.4777C66.0306 62.2343 65.4114 62.8538 64.6545 62.8538Z" fill="white"/>
<path d="M52.5631 97.4687H42.1552C41.0446 97.4687 40.1362 96.5603 40.1362 95.4497V93.5639C40.1362 92.4533 41.0446 91.5449 42.1552 91.5449H52.5631C53.6734 91.5449 54.5821 92.4533 54.5821 93.5639V95.4497C54.5821 96.5603 53.6737 97.4687 52.5631 97.4687Z" fill="#01859A"/>
<path opacity="0.3" d="M52.5631 97.4687H42.1552C41.0446 97.4687 40.1362 96.5603 40.1362 95.4497V93.5639C40.1362 92.4533 41.0446 91.5449 42.1552 91.5449H52.5631C53.6734 91.5449 54.5821 92.4533 54.5821 93.5639V95.4497C54.5821 96.5603 53.6737 97.4687 52.5631 97.4687Z" fill="white"/>
<path d="M70.9904 97.4687H60.5825C59.4722 97.4687 58.5635 96.5603 58.5635 95.4497V93.5639C58.5635 92.4533 59.4722 91.5449 60.5825 91.5449H70.9904C72.1007 91.5449 73.0094 92.4533 73.0094 93.5639V95.4497C73.0094 96.5603 72.1007 97.4687 70.9904 97.4687Z" fill="#01859A"/>
<path opacity="0.3" d="M70.9904 97.4687H60.5825C59.4722 97.4687 58.5635 96.5603 58.5635 95.4497V93.5639C58.5635 92.4533 59.4722 91.5449 60.5825 91.5449H70.9904C72.1007 91.5449 73.0094 92.4533 73.0094 93.5639V95.4497C73.0094 96.5603 72.1007 97.4687 70.9904 97.4687Z" fill="white"/>
<path d="M89.4176 97.4687H79.0097C77.8994 97.4687 76.9907 96.5603 76.9907 95.4497V93.5639C76.9907 92.4533 77.8991 91.5449 79.0097 91.5449H89.4176C90.5279 91.5449 91.4366 92.4533 91.4366 93.5639V95.4497C91.4366 96.5603 90.5279 97.4687 89.4176 97.4687Z" fill="#01859A"/>
<path opacity="0.3" d="M89.4176 97.4687H79.0097C77.8994 97.4687 76.9907 96.5603 76.9907 95.4497V93.5639C76.9907 92.4533 77.8991 91.5449 79.0097 91.5449H89.4176C90.5279 91.5449 91.4366 92.4533 91.4366 93.5639V95.4497C91.4366 96.5603 90.5279 97.4687 89.4176 97.4687Z" fill="white"/>
<path d="M107.845 97.4687H97.437C96.3264 97.4687 95.418 96.5603 95.418 95.4497V93.5639C95.418 92.4533 96.3264 91.5449 97.437 91.5449H107.845C108.955 91.5449 109.864 92.4533 109.864 93.5639V95.4497C109.864 96.5603 108.955 97.4687 107.845 97.4687Z" fill="#01859A"/>
<path opacity="0.3" d="M107.845 97.4687H97.437C96.3264 97.4687 95.418 96.5603 95.418 95.4497V93.5639C95.418 92.4533 96.3264 91.5449 97.437 91.5449H107.845C108.955 91.5449 109.864 92.4533 109.864 93.5639V95.4497C109.864 96.5603 108.955 97.4687 107.845 97.4687Z" fill="white"/>
<path d="M87.897 34.0465C87.1863 36.0535 86.4099 37.9951 85.5603 39.937C84.6969 41.8726 83.7951 43.7881 82.6488 45.6787C82.5045 45.9154 82.3428 46.153 82.1901 46.3894L82.074 46.5667L81.9138 46.7848C81.8079 46.9216 81.7062 47.0437 81.6048 47.1592C81.2031 47.6152 80.8038 47.9914 80.4024 48.3634C79.6029 49.1029 78.7857 49.7761 77.9607 50.4376C76.3062 51.7531 74.6139 52.9837 72.8577 54.1513L71.8101 52.8508L76.2402 48.5017C76.9692 47.7793 77.6904 47.0494 78.3663 46.321C78.7008 45.9577 79.0245 45.5842 79.2909 45.2419C79.3557 45.1576 79.4145 45.0748 79.4628 45.0022L79.5267 44.9011L79.6152 44.7463C79.7325 44.5378 79.854 44.3386 79.9686 44.1241C80.8869 42.3982 81.6957 40.5106 82.4748 38.6236C83.2491 36.7333 84.0054 34.8034 84.726 32.9023L87.897 34.0465Z" fill="#E4897B"/>
<path d="M88.7429 32.5969C89.4233 34.5868 85.4228 40.4467 85.4228 40.4467L81.5864 38.3233C81.5864 38.3233 82.6307 35.3425 83.8904 32.9824C85.2422 30.4501 87.9962 30.4132 88.7429 32.5969Z" fill="#01859A"/>
<path opacity="0.7" d="M88.7429 32.5969C89.4233 34.5868 85.4228 40.4467 85.4228 40.4467L81.5864 38.3233C81.5864 38.3233 82.6307 35.3425 83.8904 32.9824C85.2422 30.4501 87.9962 30.4132 88.7429 32.5969Z" fill="white"/>
<path opacity="0.31" d="M88.8013 32.8504C87.9433 32.4376 86.9536 32.7829 85.9147 34.4266C84.889 36.0532 83.9875 38.8171 83.8906 39.6007L85.4236 40.4485C85.4236 40.4485 89.1172 35.0374 88.8013 32.8504Z" fill="#01859A"/>
<path d="M86.1548 31.0763C86.1548 31.0763 83.297 37.7924 85.3562 50.3C88.9406 50.3 95.5079 50.3 97.2521 50.3C97.3973 48.4739 96.5591 39.566 98.6186 30.9617C98.6186 30.9617 96.5936 30.5525 94.6538 30.4589C93.1364 30.3857 90.9374 30.3371 89.597 30.4592C87.83 30.62 86.1548 31.0763 86.1548 31.0763Z" fill="#01859A"/>
<path opacity="0.7" d="M86.1548 31.0763C86.1548 31.0763 83.297 37.7924 85.3562 50.3C88.9406 50.3 95.5079 50.3 97.2521 50.3C97.3973 48.4739 96.5591 39.566 98.6186 30.9617C98.6186 30.9617 96.5936 30.5525 94.6538 30.4589C93.1364 30.3857 90.9374 30.3371 89.597 30.4592C87.83 30.62 86.1548 31.0763 86.1548 31.0763Z" fill="white"/>
<path d="M101.464 103.588L99.7011 105.166L96.3462 101.672L98.1093 100.094L101.464 103.588Z" fill="#E4897B"/>
<path d="M95.4254 106.873H93.2015L92.9126 101.723H95.1365L95.4254 106.873Z" fill="#E4897B"/>
<path d="M96.3477 101.672L98.0766 103.474L99.8409 101.895L98.1117 100.094L96.3477 101.672Z" fill="#CE6F64"/>
<path d="M95.1374 101.725H92.9126L93.0626 104.379H95.2874L95.1374 101.725Z" fill="#CE6F64"/>
<path d="M85.3565 50.2991C85.3565 50.2991 83.0138 66.5165 82.214 75.3446C81.5723 82.4255 96.8873 103.554 96.8873 103.554L99.8501 100.766C99.8501 100.766 88.6637 81.833 89.5247 73.9496C90.3587 66.3134 93.1862 50.2988 93.1862 50.2988H85.3565V50.2991Z" fill="#01859A"/>
<path opacity="0.7" d="M85.3565 50.2991C85.3565 50.2991 83.0138 66.5165 82.214 75.3446C81.5723 82.4255 96.8873 103.554 96.8873 103.554L99.8501 100.766C99.8501 100.766 88.6637 81.833 89.5247 73.9496C90.3587 66.3134 93.1862 50.2988 93.1862 50.2988H85.3565V50.2991Z" fill="black"/>
<path opacity="0.2" d="M89.5261 73.9491C89.9551 70.0161 90.9151 63.8541 91.7401 58.8081C91.3081 57.9621 90.0967 56.25 90.0967 56.25C89.0107 60.003 86.6503 74.1501 90.0181 93.2571C93.5281 98.9151 96.8881 103.553 96.8881 103.553L97.3471 96.2571C94.1041 90.1551 88.9291 79.4061 89.5261 73.9491Z" fill="black"/>
<path d="M89.5867 50.2988C89.5867 50.2988 89.3749 67.2956 89.7358 73.6631C90.1309 80.636 92.1088 103.737 92.1088 103.737H96.1821C96.1821 103.737 96.0607 81.1991 96.3061 74.2952C96.5725 66.8021 97.2625 50.2988 97.2625 50.2988H89.5867Z" fill="#01859A"/>
<path opacity="0.7" d="M89.5867 50.2988C89.5867 50.2988 89.3749 67.2956 89.7358 73.6631C90.1309 80.636 92.1088 103.737 92.1088 103.737H96.1821C96.1821 103.737 96.0607 81.1991 96.3061 74.2952C96.5725 66.8021 97.2625 50.2988 97.2625 50.2988H89.5867Z" fill="black"/>
<path d="M93.0848 106.615H95.5835C95.6744 106.615 95.7431 106.678 95.7485 106.767L95.8697 108.744C95.8823 108.949 95.6897 109.143 95.4803 109.139C94.6103 109.124 94.1948 109.073 93.0959 109.073C92.42 109.073 89.546 109.143 88.6124 109.143C87.6992 109.143 87.7055 108.22 88.1012 108.137C89.8751 107.762 92.0738 107.245 92.7017 106.751C92.8151 106.663 92.9519 106.615 93.0848 106.615Z" fill="#263238"/>
<path d="M99.2148 104.532L101.358 103.089C101.438 103.035 101.54 103.038 101.604 103.096L103.242 104.75C103.388 104.884 103.34 105.115 103.163 105.251C101.796 106.304 100.808 107.099 100.03 107.975C99.1197 108.998 98.6421 109.143 96.5421 109.143C95.5707 109.143 95.0214 108.325 95.4171 108.2C98.9172 107.091 97.9815 106.61 98.8314 104.987C98.9235 104.81 99.0453 104.646 99.2148 104.532Z" fill="#263238"/>
<path d="M72.3332 52.5664L70.0142 52.6498L70.4999 54.4666C70.4999 54.4666 72.9248 54.6814 73.1408 53.9509L72.3332 52.5664Z" fill="#E4897B"/>
<path d="M67.5127 53.7319L69.1372 54.682L70.5001 54.4672L70.0144 52.6504L67.5127 53.7319Z" fill="#E4897B"/>
<path opacity="0.31" d="M95.961 33.0855C95.7138 34.5015 96.0429 37.8894 97.2558 41.8044C97.3644 38.7915 97.6668 35.298 98.424 31.8171L98.4246 31.8003C97.6434 31.7202 96.1968 31.7583 95.961 33.0855Z" fill="#01859A"/>
<path d="M94.3507 24.7637C93.9754 26.3909 93.5536 29.372 94.6543 30.4577C94.6543 30.4577 94.1794 31.8056 91.156 31.8056C87.8317 31.8056 89.5975 30.4577 89.5975 30.4577C91.4269 30.0245 91.4269 28.6781 91.1545 27.4139L94.3507 24.7637Z" fill="#E4897B"/>
<path d="M91.0668 31.8066L90.1689 32.7636L90.6087 33.6861L91.3246 33.7206L91.9375 32.8386L91.0668 31.8066Z" fill="#01859A"/>
<path d="M93.0476 25.8457L91.1558 27.4132C91.2212 27.7123 91.2698 28.0159 91.2806 28.3108C91.9772 28.2106 92.9558 27.4498 93.0545 26.7241C93.104 26.3623 93.1007 26.0143 93.0476 25.8457Z" fill="#CE6F64"/>
<path d="M90.4065 19.2505C89.2671 19.6375 88.3602 22.6522 89.685 23.4484C91.0098 24.2446 92.5644 18.5176 90.4065 19.2505Z" fill="#263238"/>
<path d="M95.0618 23.0596C94.3841 25.1665 94.0952 26.4304 92.7281 27.289C90.6719 28.5802 88.265 27.0208 88.2962 24.7765C88.3241 22.7563 89.4278 19.6501 91.7516 19.261C94.0409 18.8773 95.7395 20.9524 95.0618 23.0596Z" fill="#E4897B"/>
<path d="M96.7397 19.5517C96.0635 21.1876 97.643 19.8211 97.2344 21.763C96.9677 23.0308 94.6841 26.0638 93.8009 25.7869C92.9177 25.5097 92.9288 23.3617 94.0544 21.8401C94.7 20.9671 93.2987 19.9774 90.1493 20.0806C87.0002 20.1838 85.1 18.4171 89.2835 17.1172C89.2835 17.1172 87.7418 18.0088 88.6571 18.3337C89.9546 18.7942 98.0963 16.2697 96.7397 19.5517Z" fill="#263238"/>
<path d="M96.1401 20.308C96.1092 20.2936 96.8454 20.1241 97.2384 18.8203C97.2384 18.8203 97.1112 20.7607 96.1401 20.308Z" fill="#263238"/>
<path d="M90.2525 17.4082C88.3178 18.0199 89.1185 18.6835 89.9186 18.85L91.7537 18.1312C88.9664 18.4846 90.2525 17.4082 90.2525 17.4082Z" fill="#263238"/>
<path d="M95.4326 25.6258C95.0018 26.05 94.4186 26.2447 93.926 26.2444C93.185 26.2441 93.0356 25.5433 93.4268 24.9568C93.779 24.4288 94.589 23.7928 95.2436 24.0754C95.8886 24.3541 95.9249 25.1407 95.4326 25.6258Z" fill="#E4897B"/>
<path d="M91.6449 22.9418C91.6005 23.1158 91.4715 23.2364 91.3569 23.2112C91.2423 23.186 91.1856 23.0249 91.23 22.8509C91.2744 22.6769 91.4034 22.5563 91.518 22.5815C91.6326 22.6064 91.6893 22.7678 91.6449 22.9418Z" fill="#263238"/>
<path d="M89.6636 22.5082C89.6192 22.6822 89.4902 22.8028 89.3759 22.7776C89.2613 22.7527 89.2046 22.5913 89.249 22.4173C89.2934 22.2433 89.4224 22.1227 89.537 22.1479C89.6513 22.1731 89.708 22.3342 89.6636 22.5082Z" fill="#263238"/>
<path d="M90.2718 22.7324C90.2718 22.7324 89.6172 23.6486 89.0547 24.0368C89.2914 24.3917 89.8521 24.3758 89.8521 24.3758L90.2718 22.7324Z" fill="#DE5753"/>
<path d="M90.6089 25.0098C90.4943 25.0098 90.3719 24.9978 90.2414 24.9693C90.2129 24.9633 90.1949 24.9351 90.2009 24.9066C90.2072 24.8781 90.236 24.8601 90.2636 24.8664C91.0349 25.0344 91.5302 24.5793 91.535 24.5748C91.5566 24.555 91.5899 24.5559 91.6094 24.5772C91.6292 24.5985 91.6283 24.6318 91.607 24.6516C91.5893 24.6687 91.2176 25.0098 90.6089 25.0098Z" fill="#263238"/>
<path d="M92.4296 22.4427C92.3888 22.4427 92.3501 22.419 92.333 22.3794C92.1515 21.9621 91.7783 21.8991 91.7627 21.8967C91.7057 21.8877 91.6661 21.8343 91.6745 21.777C91.6832 21.7197 91.7342 21.6807 91.7936 21.6885C91.814 21.6915 92.297 21.768 92.5262 22.296C92.5493 22.3494 92.5247 22.4112 92.4713 22.4346C92.4578 22.4397 92.4434 22.4427 92.4296 22.4427Z" fill="#263238"/>
<path d="M88.995 21.6463C88.9713 21.6463 88.9473 21.6382 88.9275 21.6217C88.8828 21.5845 88.8768 21.5179 88.914 21.4732C89.2911 21.022 89.7753 21.0604 89.7966 21.0619C89.8542 21.0673 89.8971 21.1183 89.8917 21.1762C89.8863 21.2338 89.8359 21.2767 89.7777 21.2716C89.7588 21.2704 89.3784 21.2452 89.0754 21.6082C89.0553 21.6334 89.0253 21.6463 88.995 21.6463Z" fill="#263238"/>
<path d="M99.1936 32.4961C99.4288 32.8591 99.6256 33.1792 99.8221 33.5269C100.019 33.8683 100.209 34.2115 100.394 34.5577C100.762 35.2516 101.106 35.959 101.422 36.6841C102.048 38.1373 102.595 39.6463 102.909 41.2879L102.94 41.4406L102.956 41.5171L102.977 41.6422C103.006 41.8243 103.013 41.989 103.015 42.1498C103.013 42.4648 102.975 42.7408 102.924 42.9952C102.815 43.5013 102.657 43.9297 102.486 44.332C102.143 45.1345 101.72 45.826 101.287 46.4965C100.401 47.8255 99.4213 49.0072 98.3236 50.1349L97.0078 49.1065C97.7359 47.839 98.458 46.5265 99.0643 45.2386C99.3706 44.5978 99.6355 43.9438 99.8245 43.336C99.9169 43.0336 99.9814 42.7387 100.001 42.5023C100.011 42.3856 100.011 42.2851 100.002 42.2236C99.9952 42.1966 99.9904 42.1726 99.9844 42.1696C99.982 42.1642 99.9853 42.1765 99.9793 42.1561L99.9613 42.0952L99.9256 41.9734C99.7525 41.3272 99.502 40.6732 99.2506 40.0222C98.9869 39.3721 98.6914 38.7238 98.3839 38.0791C98.0701 37.4359 97.7398 36.796 97.3987 36.1612C97.2295 35.8432 97.0555 35.527 96.877 35.2153L96.3496 34.3051L99.1936 32.4961Z" fill="#E4897B"/>
<path d="M92.2965 107.003C92.1237 107.003 91.9668 106.974 91.8783 106.886C91.8087 106.817 91.7865 106.722 91.8132 106.604C91.8291 106.532 91.8708 106.481 91.9341 106.457C92.2089 106.349 92.8365 106.78 92.9073 106.829C92.9244 106.841 92.9328 106.862 92.9289 106.883C92.9247 106.903 92.9094 106.919 92.889 106.924C92.7297 106.961 92.502 107.003 92.2965 107.003ZM92.037 106.544C92.0124 106.544 91.9911 106.547 91.9728 106.554C91.9536 106.562 91.9272 106.577 91.9158 106.626C91.8978 106.708 91.9095 106.769 91.9524 106.811C92.0553 106.913 92.3469 106.926 92.7441 106.847C92.5185 106.704 92.208 106.544 92.037 106.544Z" fill="white"/>
<path d="M92.8776 106.925C92.8683 106.925 92.8587 106.922 92.8506 106.917C92.6289 106.786 92.2968 106.321 92.3481 106.078C92.3673 105.988 92.4342 105.933 92.5371 105.92C92.6217 105.91 92.697 105.934 92.7573 105.993C92.982 106.21 92.9322 106.849 92.9298 106.876C92.9283 106.895 92.9175 106.91 92.9013 106.919C92.8938 106.923 92.8857 106.925 92.8776 106.925ZM92.5734 106.023C92.5659 106.023 92.5575 106.024 92.5494 106.025C92.4747 106.033 92.4576 106.069 92.4513 106.099C92.418 106.258 92.6373 106.609 92.8302 106.772C92.8365 106.561 92.8179 106.197 92.6847 106.068C92.6529 106.038 92.6163 106.023 92.5734 106.023Z" fill="white"/>
<path d="M97.7746 105.739C97.7149 105.739 97.6603 105.731 97.6138 105.711C97.5322 105.677 97.4785 105.615 97.4548 105.525C97.4404 105.47 97.4518 105.419 97.4875 105.376C97.6888 105.133 98.743 105.205 98.8624 105.214C98.8855 105.216 98.9047 105.232 98.9098 105.254C98.9152 105.277 98.905 105.3 98.8852 105.312C98.5933 105.483 98.1016 105.739 97.7746 105.739ZM98.4127 105.303C98.0419 105.303 97.6564 105.337 97.5685 105.443C97.5544 105.46 97.5508 105.477 97.5565 105.498C97.5715 105.555 97.6033 105.593 97.654 105.614C97.8217 105.684 98.1988 105.57 98.677 105.309C98.593 105.305 98.5033 105.303 98.4127 105.303Z" fill="white"/>
<path d="M98.8585 105.319H98.8573C98.5507 105.312 97.8811 105.089 97.8292 104.848C97.8166 104.79 97.8316 104.705 97.9732 104.637C98.4904 104.393 98.8891 105.209 98.9056 105.244C98.9134 105.26 98.9125 105.28 98.9023 105.295C98.8933 105.31 98.8765 105.319 98.8585 105.319ZM98.1649 104.698C98.1172 104.698 98.0686 104.709 98.0191 104.732C97.9549 104.763 97.9258 104.794 97.9327 104.826C97.963 104.967 98.4469 105.165 98.7658 105.206C98.671 105.043 98.4379 104.698 98.1649 104.698Z" fill="white"/>
<path d="M97.6023 48.6143L95.3877 48.2285L96.5241 50.7917C96.5241 50.7917 98.5455 50.78 98.4528 49.7381L97.6023 48.6143Z" fill="#E4897B"/>
<path d="M93.7358 49.5167L94.7759 51.5876L96.5243 50.7917L95.3876 48.2285L93.7358 49.5167Z" fill="#E4897B"/>
<path d="M100.03 100.598L96.7072 103.725L95.6377 102.576L99.4375 99.1133L100.03 100.598Z" fill="#01859A"/>
<path opacity="0.6" d="M100.03 100.598L96.7072 103.725L95.6377 102.576L99.4375 99.1133L100.03 100.598Z" fill="white"/>
<path d="M96.3463 103.737H91.9444L91.7002 102.191L96.5584 102.433L96.3463 103.737Z" fill="#01859A"/>
<path opacity="0.6" d="M96.3463 103.737H91.9444L91.7002 102.191L96.5584 102.433L96.3463 103.737Z" fill="white"/>
<path d="M98.6187 30.9607C100.712 31.2667 102.869 38.5582 102.869 38.5582L98.3634 41.0545C98.3634 41.0545 96.5373 37.5865 95.6667 35.0113C94.7547 32.3131 96.3732 30.6325 98.6187 30.9607Z" fill="#01859A"/>
<path opacity="0.7" d="M98.6187 30.9607C100.712 31.2667 102.869 38.5582 102.869 38.5582L98.3634 41.0545C98.3634 41.0545 96.5373 37.5865 95.6667 35.0113C94.7547 32.3131 96.3732 30.6325 98.6187 30.9607Z" fill="white"/>
<path opacity="0.2" d="M91.0668 31.8066L90.1689 32.7636L90.6087 33.6861L91.3246 33.7206L91.9375 32.8386L91.0668 31.8066Z" fill="black"/>
<path d="M90.6879 33.5234C90.6879 33.5234 88.98 40.5941 88.9128 42.0638C88.8207 44.0846 89.667 47.5388 89.667 47.5388C89.667 47.5388 90.867 44.6681 91.1127 42.0014C91.3548 39.3731 91.1751 35.0204 91.2876 33.5234H90.6879Z" fill="#01859A"/>
<path opacity="0.2" d="M90.6879 33.5234C90.6879 33.5234 88.98 40.5941 88.9128 42.0638C88.8207 44.0846 89.667 47.5388 89.667 47.5388C89.667 47.5388 90.867 44.6681 91.1127 42.0014C91.3548 39.3731 91.1751 35.0204 91.2876 33.5234H90.6879Z" fill="#01859A"/>
<path d="M91.0669 31.8063C91.6147 32.6085 91.6453 33.6381 91.6453 33.6381C91.6453 33.6381 95.3872 32.3181 95.2126 30.384C95.2126 30.384 94.6816 30.0687 94.3441 29.8125C94.3441 29.8125 94.2169 31.0317 91.0669 31.8063Z" fill="#01859A"/>
<path opacity="0.6" d="M91.0669 31.8063C91.6147 32.6085 91.6453 33.6381 91.6453 33.6381C91.6453 33.6381 95.3872 32.3181 95.2126 30.384C95.2126 30.384 94.6816 30.0687 94.3441 29.8125C94.3441 29.8125 94.2169 31.0317 91.0669 31.8063Z" fill="white"/>
<path d="M91.067 31.8061C90.5189 32.6083 90.3374 33.5218 90.3374 33.5218C90.3374 33.5218 88.6421 32.3746 89.1509 30.4627C89.1509 30.4627 89.6294 30.2623 90.1088 30.1582C90.1088 30.1582 89.8865 31.3924 91.067 31.8061Z" fill="#01859A"/>
<path opacity="0.6" d="M91.067 31.8061C90.5189 32.6083 90.3374 33.5218 90.3374 33.5218C90.3374 33.5218 88.6421 32.3746 89.1509 30.4627C89.1509 30.4627 89.6294 30.2623 90.1088 30.1582C90.1088 30.1582 89.8865 31.3924 91.067 31.8061Z" fill="white"/>
</svg>
