<svg width="147" height="139" viewBox="0 0 147 139" fill="none" xmlns="http://www.w3.org/2000/svg">
<path d="M127.6 75.4993L28.2001 100.799C22.8001 102.199 17.4001 98.8993 16.0001 93.5993L2.60014 40.1993C1.20014 34.7993 4.50014 29.3993 9.80014 27.9993L109.2 2.69927C114.6 1.29927 120 4.59927 121.4 9.89927L135 63.1993C136.2 68.6993 133 74.0993 127.6 75.4993Z" fill="white" stroke="#01859A" stroke-width="4" stroke-miterlimit="10"/>
<path d="M123.775 19.7052L5.04834 49.877L8.12709 61.992L126.854 31.8202L123.775 19.7052Z" fill="white" stroke="#01859A" stroke-width="4" stroke-miterlimit="10"/>
<path d="M135 136.801H32.3999C26.8999 136.801 22.3999 132.301 22.3999 126.801V71.8008C22.3999 66.3008 26.8999 61.8008 32.3999 61.8008H135C140.5 61.8008 145 66.3008 145 71.8008V126.801C145 132.301 140.5 136.801 135 136.801Z" fill="white" stroke="#01859A" stroke-width="4" stroke-miterlimit="10"/>
<path d="M52.7999 124.301H35.4999C35.1999 124.301 34.8999 124.001 34.8999 123.701V121.901C34.8999 121.601 35.1999 121.301 35.4999 121.301H52.6999C52.9999 121.301 53.2999 121.601 53.2999 121.901V123.701C53.3999 124.001 53.0999 124.301 52.7999 124.301Z" fill="#01859A"/>
<path d="M79.5997 124.301H62.2997C61.9997 124.301 61.6997 124.001 61.6997 123.701V121.901C61.6997 121.601 61.9997 121.301 62.2997 121.301H79.4997C79.7997 121.301 80.0997 121.601 80.0997 121.901V123.701C80.1997 124.001 79.8997 124.301 79.5997 124.301Z" fill="#01859A"/>
<path d="M106.4 124.301H89.2001C88.9001 124.301 88.6001 124.001 88.6001 123.701V121.901C88.6001 121.601 88.9001 121.301 89.2001 121.301H106.4C106.7 121.301 107 121.601 107 121.901V123.701C106.9 124.001 106.7 124.301 106.4 124.301Z" fill="#01859A"/>
<path d="M133.1 124.301H115.9C115.6 124.301 115.3 124.001 115.3 123.701V121.901C115.3 121.601 115.6 121.301 115.9 121.301H133.1C133.4 121.301 133.7 121.601 133.7 121.901V123.701C133.7 124.001 133.5 124.301 133.1 124.301Z" fill="#01859A"/>
<path d="M132.3 90.5H110.1C109.3 90.5 108.7 89.9 108.7 89.1V76.9C108.7 76.1 109.3 75.5 110.1 75.5H132.3C133.1 75.5 133.7 76.1 133.7 76.9V89.1C133.7 89.9 133.1 90.5 132.3 90.5Z" fill="#01859A"/>
</svg>
