<svg width="111" height="161" viewBox="0 0 111 161" fill="none" xmlns="http://www.w3.org/2000/svg">
<path d="M74.6001 159H15.8001C8.5001 159 2.6001 153.1 2.6001 145.8V15.7996C2.6001 8.49961 8.5001 2.59961 15.8001 2.59961H74.5001C81.8001 2.59961 87.7001 8.49961 87.7001 15.7996V145.8C87.8001 153 81.8001 159 74.6001 159Z" stroke="#01859A" stroke-width="4" stroke-miterlimit="10"/>
<path d="M2.6001 21.4004H88.8001" stroke="#01859A" stroke-width="4" stroke-miterlimit="10"/>
<path d="M2.6001 136.199H88.8001" stroke="#01859A" stroke-width="4" stroke-miterlimit="10"/>
<path d="M102.3 34H72.7998V116.9H102.3V34Z" fill="white"/>
<path d="M71.2001 39.0996C72.8001 39.0996 74.4001 39.0996 76.1001 39.0996C76.6001 39.1996 77.1001 39.4996 77.6001 39.3996C79.1001 39.2996 79.6001 39.8996 79.6001 41.4996C79.5001 47.2996 79.6001 53.0996 79.6001 58.9996C79.6001 59.4996 79.7001 60.0996 79.7001 60.8996C80.3001 60.3996 80.6001 60.1996 80.9001 59.8996C85.2001 55.5996 89.4001 51.3996 93.7001 47.0996C94.5001 46.2996 95.1001 45.9996 95.9001 46.8996C98.0001 49.0996 100.1 51.1996 102.3 53.2996C103.1 53.9996 103.1 54.5996 102.3 55.3996C98.0001 59.5996 93.8001 63.7996 89.6001 67.9996C89.2001 68.3996 88.9001 68.7996 88.3001 69.5996C89.3001 69.5996 89.9001 69.5996 90.5001 69.5996C96.0001 69.5996 101.5 69.5996 107 69.5996C109.6 69.5996 109.6 69.5996 109.9 72.1996C109.9 72.4996 110.1 72.7996 110.2 73.0996C110.2 74.6996 110.2 76.2996 110.2 77.9996C110.1 78.4996 109.8 78.9996 109.9 79.4996C110 80.9996 109.4 81.4996 107.8 81.4996C102 81.3996 96.2001 81.4996 90.3001 81.4996C89.8001 81.4996 89.2001 81.5996 88.4001 81.5996C88.9001 82.1996 89.1001 82.4996 89.4001 82.7996C93.7001 87.0996 97.9001 91.2996 102.2 95.5996C103 96.3996 103.3 96.9996 102.4 97.7996C100.2 99.8996 98.1001 102 96.0001 104.2C95.2001 105 94.7001 105 93.9001 104.2C89.7001 99.8996 85.5001 95.6996 81.2001 91.4996C80.8001 91.0996 80.4001 90.7996 79.6001 90.1996C79.6001 91.1996 79.6001 91.7996 79.6001 92.3996C79.6001 97.8996 79.6001 103.4 79.6001 108.9C79.6001 111.5 79.6001 111.5 77.0001 111.8C76.7001 111.8 76.4001 112 76.1001 112.1C74.5001 112.1 72.9001 112.1 71.2001 112.1C70.7001 112 70.2001 111.7 69.7001 111.8C68.2001 111.9 67.7001 111.3 67.7001 109.7C67.8001 103.9 67.7001 98.0996 67.7001 92.1996C67.7001 91.6996 67.6001 91.0996 67.6001 90.2996C67.0001 90.7996 66.7001 90.9996 66.4001 91.2996C62.1001 95.5996 57.9001 99.7996 53.6001 104.1C52.8001 104.9 52.2001 105.1 51.4001 104.3C49.3001 102.1 47.2001 99.9996 45.0001 97.8996C44.2001 97.0996 44.2001 96.5996 45.0001 95.7996C49.3001 91.5996 53.5001 87.3996 57.7001 83.1996C58.1001 82.7996 58.4001 82.3996 59.0001 81.5996C58.0001 81.5996 57.4001 81.5996 56.8001 81.5996C51.3001 81.5996 45.8001 81.5996 40.3001 81.5996C37.7001 81.5996 37.7001 81.5996 37.4001 78.9996C37.4001 78.6996 37.2001 78.3996 37.1001 78.0996C37.1001 76.6996 37.1001 75.2996 37.1001 73.8996C37.2001 73.0996 37.5001 72.2996 37.5001 71.4996C37.5001 70.1996 37.9001 69.5996 39.4001 69.6996C45.3001 69.7996 51.2001 69.6996 57.0001 69.6996C57.5001 69.6996 58.1001 69.5996 58.9001 69.5996C58.4001 68.9996 58.1001 68.5996 57.8001 68.2996C53.5001 63.9996 49.3001 59.7996 45.0001 55.4996C44.2001 54.6996 44.0001 54.0996 44.9001 53.2996C47.1001 51.1996 49.2001 49.0996 51.3001 46.8996C52.1001 46.0996 52.6001 46.1996 53.4001 46.9996C57.6001 51.2996 61.8001 55.4996 66.0001 59.6996C66.4001 60.0996 66.8001 60.3996 67.6001 60.9996C67.6001 59.9996 67.6001 59.3996 67.6001 58.7996C67.6001 53.2996 67.6001 47.7996 67.6001 42.2996C67.6001 39.6996 67.6001 39.6996 70.2001 39.3996C70.6001 39.3996 70.9001 39.1996 71.2001 39.0996ZM74.5001 84.8996C75.8001 84.5996 78.1001 84.1996 80.4001 83.5996C80.9001 83.4996 81.5001 82.8996 81.7001 82.3996C83.3001 77.8996 83.3001 73.2996 81.7001 68.7996C81.5001 68.1996 80.9001 67.5996 80.3001 67.3996C75.8001 65.7996 71.3001 65.7996 66.8001 67.3996C66.2001 67.5996 65.5001 68.2996 65.4001 68.8996C64.9001 71.0996 64.2001 73.4996 64.3001 75.6996C65.0001 84.1996 65.0001 84.0996 74.5001 84.8996Z" fill="#01859A"/>
</svg>
