<svg width="72" height="45" viewBox="0 0 72 45" fill="none" xmlns="http://www.w3.org/2000/svg">
<g filter="url(#filter0_d_145_464)">
<rect x="4" y="3" width="64" height="37" rx="5" fill="#FF731D" fill-opacity="0.3" shape-rendering="crispEdges"/>
<path d="M44.1911 15.6352C44.1911 14.406 44.6051 13.227 45.3423 12.3577C46.0795 11.4885 47.0795 11 48.1219 11C49.1646 11 50.1643 11.4885 50.9015 12.3577C51.6388 13.2269 52.053 14.406 52.053 15.6352C52.053 16.8646 51.6387 18.0434 50.9015 18.9126C50.1644 19.7819 49.1646 20.2703 48.1219 20.2703C47.0795 20.2703 46.0795 19.7818 45.3423 18.9126C44.6051 18.0434 44.1911 16.8646 44.1911 15.6352ZM48.8551 22.1317C44.3521 22.1317 40.7033 26.0734 40.7033 30.9458L40.7031 30.9461C40.7031 31.2195 40.7218 31.4929 40.7596 31.7628C40.7596 31.9812 40.961 31.9718 41.1462 31.9718H56.556C56.7412 31.9718 56.9184 31.9718 56.9426 31.7628C56.982 31.4484 57.001 31.1308 56.9989 30.8131C57.015 25.9787 53.3661 22.1221 48.8951 22.1221L48.8551 22.1317ZM33.123 31.9621C33.1352 31.6931 33.1352 31.4236 33.123 31.1546C33.1014 28.6601 32.2848 26.2666 30.8353 24.4491C32.3838 22.9297 34.3385 22.1053 36.353 22.1221C38.1582 22.1219 39.9181 22.7859 41.3877 24.0217C39.776 25.8218 38.8569 28.319 38.8421 30.9362V32H33.0665L33.123 31.9621ZM36.345 20.2703C37.3875 20.2703 38.3874 19.7818 39.1247 18.9126C39.8619 18.0434 40.2761 16.8646 40.2761 15.6352C40.2761 14.406 39.8618 13.227 39.1247 12.3577C38.3875 11.4885 37.3875 11 36.345 11C35.3024 11 34.3026 11.4885 33.5654 12.3577C32.8282 13.2269 32.414 14.406 32.414 15.6352C32.414 16.8712 32.8325 18.0558 33.5767 18.9261C34.3208 19.7964 35.329 20.2803 36.3771 20.2703L36.345 20.2703ZM19.9287 15.6352C19.9287 14.4061 20.3428 13.227 21.08 12.3578C21.8171 11.4886 22.8171 11.0001 23.8596 11.0001C24.9022 11.0001 25.902 11.4886 26.6394 12.3578C27.3765 13.227 27.7906 14.406 27.7906 15.6352C27.7906 16.8647 27.3765 18.0435 26.6394 18.9127C25.902 19.7819 24.9022 20.2704 23.8596 20.2704C22.8214 20.2627 21.8277 19.7711 21.0957 18.9028C20.3637 18.0344 19.9529 16.8598 19.9529 15.6353L19.9287 15.6352ZM23.1508 22.1318C18.6478 22.1318 14.999 26.0735 14.999 30.9459V30.9462C14.9988 31.2196 15.0178 31.493 15.0553 31.7628C15.0553 31.9812 15.2567 31.9718 15.4419 31.9718H30.8517C31.0369 31.9718 31.2141 31.9718 31.2383 31.7628C31.2779 31.4485 31.2967 31.1308 31.2948 30.8132C31.311 25.9787 27.6618 22.1222 23.1191 22.1222L23.1508 22.1318Z" fill="black"/>
</g>
<defs>
<filter id="filter0_d_145_464" x="0" y="0" width="72" height="45" filterUnits="userSpaceOnUse" color-interpolation-filters="sRGB">
<feFlood flood-opacity="0" result="BackgroundImageFix"/>
<feColorMatrix in="SourceAlpha" type="matrix" values="0 0 0 0 0 0 0 0 0 0 0 0 0 0 0 0 0 0 127 0" result="hardAlpha"/>
<feOffset dy="1"/>
<feGaussianBlur stdDeviation="2"/>
<feComposite in2="hardAlpha" operator="out"/>
<feColorMatrix type="matrix" values="0 0 0 0 0 0 0 0 0 0 0 0 0 0 0 0 0 0 0.2 0"/>
<feBlend mode="normal" in2="BackgroundImageFix" result="effect1_dropShadow_145_464"/>
<feBlend mode="normal" in="SourceGraphic" in2="effect1_dropShadow_145_464" result="shape"/>
</filter>
</defs>
</svg>
