<svg width="150" height="150" viewBox="0 0 150 150" fill="none" xmlns="http://www.w3.org/2000/svg">
<g clip-path="url(#clip0_621_1447)">
<path d="M127.17 46.4098C131.955 55.1398 134.49 64.9348 134.49 74.9998C134.49 75.9298 134.415 76.8748 134.37 77.8048C135.255 77.6698 136.155 77.5798 137.07 77.5798C137.91 77.5798 138.735 77.6548 139.545 77.7748C139.59 76.8448 139.665 75.9298 139.665 74.9998C139.665 63.2098 136.455 51.7498 130.41 41.7148C129.66 43.0498 128.82 44.3248 127.86 45.5398L127.17 46.4098Z" fill="#01859A"/>
<path d="M50.0999 20.985C57.6749 17.475 65.7749 15.645 74.2199 15.54C74.8499 13.74 75.6449 12.03 76.5899 10.395C66.5699 10.17 56.3849 12.3 47.2949 16.605C48.4199 17.925 49.3649 19.395 50.0999 20.985Z" fill="#01859A"/>
<path d="M23.5349 45.1802L20.2049 40.7402C14.2349 50.2802 10.8749 61.1402 10.4399 72.4202H15.6149C16.0199 62.7752 18.7199 53.4752 23.5349 45.1802Z" fill="#01859A"/>
<path d="M115.665 118.379L117.075 124.034C120.93 120.719 124.365 116.999 127.335 112.889L124.065 108.539C121.635 112.124 118.83 115.424 115.665 118.379Z" fill="#01859A"/>
<path d="M72.4198 77.5801H51.7198V97.2751L38.7898 90.8101L25.8598 97.2751V77.5801H5.1748V129.3H12.1198C15.0298 123.195 21.2548 118.95 28.4548 118.95C35.6548 118.95 41.8798 123.195 44.7898 129.3H72.4198V77.5801Z" fill="#01859A"/>
<path d="M46.3501 134.49C46.4701 135.345 46.5601 136.2 46.5601 137.07C46.5601 137.94 46.4701 138.81 46.3501 139.65H72.6301C72.5101 138.795 72.4201 137.94 72.4201 137.07C72.4201 136.2 72.5101 135.33 72.6301 134.49H46.3501Z" fill="#01859A"/>
<path d="M109.185 113.79H93.1051C90.2551 113.79 87.9301 111.465 87.9301 108.615V103.44C87.9301 100.59 90.2551 98.2648 93.1051 98.2648H105.315L104.505 95.0548C104.22 93.8998 103.185 93.0898 102 93.0898H77.5801V124.41C80.8651 121.05 85.4401 118.95 90.5101 118.95C97.7101 118.95 103.935 123.195 106.845 129.3H113.055L109.185 113.79Z" fill="#01859A"/>
<path d="M0 134.49V139.665H10.545C10.425 138.81 10.335 137.955 10.335 137.085C10.335 136.215 10.425 135.345 10.545 134.505H0V134.49Z" fill="#01859A"/>
<path d="M28.4549 124.141C21.3299 124.141 15.5249 129.946 15.5249 137.071C15.5249 144.196 21.3299 150.001 28.4549 150.001C35.5799 150.001 41.3849 144.196 41.3849 137.071C41.3849 129.946 35.5799 124.141 28.4549 124.141ZM28.4549 142.246C25.5899 142.246 23.2799 139.936 23.2799 137.071C23.2799 134.206 25.5899 131.896 28.4549 131.896C31.3199 131.896 33.6299 134.206 33.6299 137.071C33.6299 139.936 31.3049 142.246 28.4549 142.246Z" fill="#01859A"/>
<path d="M31.0352 88.9201L38.7902 85.0351L46.5452 88.9201V77.5801H31.0352V88.9201Z" fill="#01859A"/>
<path d="M90.5101 124.141C83.3851 124.141 77.5801 129.946 77.5801 137.071C77.5801 144.196 83.3851 150.001 90.5101 150.001C97.6351 150.001 103.44 144.196 103.44 137.071C103.44 129.946 97.6501 124.141 90.5101 124.141ZM90.5101 142.246C87.6451 142.246 85.3351 139.936 85.3351 137.071C85.3351 134.206 87.6451 131.896 90.5101 131.896C93.3751 131.896 95.6851 134.206 95.6851 137.071C95.6851 139.936 93.3751 142.246 90.5101 142.246Z" fill="#01859A"/>
<path d="M93.105 108.614H107.895L106.605 103.439H93.105V108.614Z" fill="#01859A"/>
<path d="M108.615 137.07C108.615 137.955 108.525 138.81 108.405 139.65H113.79V134.475H108.405C108.54 135.33 108.615 136.185 108.615 137.07Z" fill="#01859A"/>
<path d="M33.6151 49.9948L43.9651 36.1948C45.6301 33.9748 46.5451 31.2148 46.5451 28.4398C46.5451 21.3148 40.7401 15.5098 33.6151 15.5098C26.4901 15.5098 20.6851 21.3148 20.6851 28.4398C20.6851 31.2148 21.6001 33.9748 23.2651 36.1948L33.6151 49.9948ZM33.6151 23.2798C36.4801 23.2798 38.7901 25.5898 38.7901 28.4548C38.7901 31.3198 36.4801 33.6298 33.6151 33.6298C30.7501 33.6298 28.4401 31.3198 28.4401 28.4548C28.4551 25.5898 30.7651 23.2798 33.6151 23.2798Z" fill="#01859A"/>
<path d="M137.07 82.7559C129.945 82.7559 124.14 88.5609 124.14 95.6859C124.14 98.4609 125.055 101.221 126.72 103.441L137.07 117.241L147.42 103.441C149.085 101.221 150 98.4609 150 95.6859C150 88.5609 144.195 82.7559 137.07 82.7559ZM137.07 100.861C134.205 100.861 131.895 98.5509 131.895 95.6859C131.895 92.8209 134.205 90.5109 137.07 90.5109C139.935 90.5109 142.245 92.8209 142.245 95.6859C142.245 98.5509 139.92 100.861 137.07 100.861Z" fill="#01859A"/>
<path d="M103.455 68.235L123.795 42.345C127.365 37.815 129.315 32.13 129.315 26.37V25.86C129.315 11.595 117.705 0 103.455 0C89.2051 0 77.5801 11.595 77.5801 25.86V26.37C77.5801 32.13 79.5451 37.815 83.1001 42.345L103.455 68.235ZM103.455 7.755C113.46 7.755 121.56 15.855 121.56 25.86C121.56 35.865 113.46 43.965 103.455 43.965C93.4501 43.965 85.3501 35.865 85.3501 25.86C85.3501 15.855 93.4501 7.755 103.455 7.755Z" fill="#01859A"/>
<path d="M56.895 62.0703H62.07V67.2453H56.895V62.0703Z" fill="#01859A"/>
<path d="M67.2451 62.0703H72.4201V67.2453H67.2451V62.0703Z" fill="#01859A"/>
<path d="M77.5801 62.0703H82.7551V67.2453H77.5801V62.0703Z" fill="#01859A"/>
</g>
<defs>
<clipPath id="clip0_621_1447">
<rect width="150" height="150" fill="white"/>
</clipPath>
</defs>
</svg>
