<svg width="60" height="52" viewBox="0 0 60 52" fill="none" xmlns="http://www.w3.org/2000/svg">
<g filter="url(#filter0_d_145_450)">
<rect x="4" y="3" width="51.4619" height="43.9933" rx="5" fill="#01859a" fill-opacity="0.9" shape-rendering="crispEdges"/>
<path d="M19.8232 38.1546C19.8232 38.6789 19.4038 38.9933 18.8794 38.9933H16.6776C16.0485 38.9933 15.7339 38.6787 15.7339 38.1546V31.9687L19.8229 28.0893V38.1545L19.8232 38.1546ZM15.0004 26.0975L15.9441 27.0412L22.2348 21.065L28.1064 26.9365L40.1635 14.355L41.5266 15.7181L42.68 11L37.7522 11.6291L39.22 13.5163L28.1062 24.9444L22.2347 19.0728L15 26.0974L15.0004 26.0975ZM24.7507 38.1546C24.7507 38.6789 24.3313 38.9933 23.807 38.9933H21.6051C21.1858 38.9933 20.7664 38.6787 20.7664 38.1546V27.1455L22.6536 25.468L24.7505 27.5649V38.1544L24.7507 38.1546ZM29.5735 38.1546C29.5735 38.6789 29.1541 38.9933 28.7348 38.9933H26.5329C25.9039 38.9933 25.5892 38.6787 25.5892 38.1546V28.4043L28.5248 31.3399L29.5733 30.0818V38.155L29.5735 38.1546ZM34.2916 38.1546C34.2916 38.6789 33.977 38.9933 33.5576 38.9933H31.2511C30.7267 38.9933 30.3073 38.6787 30.3073 38.1546V29.3476L34.2914 25.1538V38.1549L34.2916 38.1546ZM39.4291 38.1546C39.4291 38.6789 39.0097 38.9933 38.4853 38.9933H36.3884C35.7594 38.9933 35.4447 38.6787 35.4447 38.1546V24.1055L39.4288 20.0165V38.1549L39.4291 38.1546ZM44.4619 38.1546C44.4619 38.6789 44.0425 38.9933 43.5181 38.9933H41.3163C40.8969 38.9933 40.4776 38.6787 40.4776 38.1546V18.9675L44.4616 14.7738V38.1549L44.4619 38.1546Z" fill="white"/>
</g>
<defs>
<filter id="filter0_d_145_450" x="0" y="0" width="59.4619" height="51.9933" filterUnits="userSpaceOnUse" color-interpolation-filters="sRGB">
<feFlood flood-opacity="0" result="BackgroundImageFix"/>
<feColorMatrix in="SourceAlpha" type="matrix" values="0 0 0 0 0 0 0 0 0 0 0 0 0 0 0 0 0 0 127 0" result="hardAlpha"/>
<feOffset dy="1"/>
<feGaussianBlur stdDeviation="2"/>
<feComposite in2="hardAlpha" operator="out"/>
<feColorMatrix type="matrix" values="0 0 0 0 0 0 0 0 0 0 0 0 0 0 0 0 0 0 0.2 0"/>
<feBlend mode="normal" in2="BackgroundImageFix" result="effect1_dropShadow_145_450"/>
<feBlend mode="normal" in="SourceGraphic" in2="effect1_dropShadow_145_450" result="shape"/>
</filter>
</defs>
</svg>
