<svg width="115" height="161" viewBox="0 0 115 161" fill="none" xmlns="http://www.w3.org/2000/svg">
<path d="M74.1998 159H15.4998C8.19981 159 2.2998 153.1 2.2998 145.8V15.7996C2.2998 8.49961 8.19981 2.59961 15.4998 2.59961H74.1998C81.4998 2.59961 87.3998 8.49961 87.3998 15.7996V145.8C87.3998 153.1 81.4998 159 74.1998 159Z" stroke="#01859A" stroke-width="4" stroke-miterlimit="10"/>
<path d="M2.2998 21.4004H88.3998" stroke="#01859A" stroke-width="4" stroke-miterlimit="10"/>
<path d="M2.2998 136.199H88.3998" stroke="#01859A" stroke-width="4" stroke-miterlimit="10"/>
<path d="M108 100.4H48.1002C45.6002 100.4 43.7002 98.3996 43.7002 95.9996V58.9996C43.7002 56.4996 45.7002 54.5996 48.1002 54.5996H108C110.5 54.5996 112.4 56.5996 112.4 58.9996V95.9996C112.4 98.3996 110.4 100.4 108 100.4Z" fill="white" stroke="#01859A" stroke-width="4" stroke-miterlimit="10"/>
<path d="M47 55L75.2 80.1C77.2 81.9 80.2 81.9 82.2 80.1L110.4 55" fill="white"/>
<path d="M47 55L75.2 80.1C77.2 81.9 80.2 81.9 82.2 80.1L110.4 55" stroke="#01859A" stroke-width="4" stroke-miterlimit="10" stroke-linecap="round"/>
<path d="M47.2002 98.6L70.1002 77.5" stroke="#01859A" stroke-width="4" stroke-miterlimit="10" stroke-linecap="round"/>
<path d="M87.7002 77.5L110.7 98.6" stroke="#01859A" stroke-width="4" stroke-miterlimit="10" stroke-linecap="round"/>
</svg>
