<svg width="20" height="20" viewBox="0 0 20 20" fill="none" xmlns="http://www.w3.org/2000/svg">
<g clip-path="url(#clip0_18627_114203)">
<path d="M10 20C15.5228 20 20 15.5228 20 10C20 4.47715 15.5228 0 10 0C4.47715 0 0 4.47715 0 10C0 15.5228 4.47715 20 10 20Z" fill="white" fill-opacity="0.9"/>
<path d="M7.33287 6.41742C7.33243 5.88976 7.4885 5.37382 7.78133 4.93487C8.07416 4.49593 8.4906 4.15369 8.97796 3.95146C9.46533 3.74923 10.0017 3.69608 10.5193 3.79876C11.0369 3.90143 11.5124 4.1553 11.8856 4.52825C12.2589 4.90121 12.5132 5.37649 12.6163 5.89398C12.7194 6.41147 12.6667 6.94791 12.4649 7.43544C12.263 7.92298 11.9212 8.3397 11.4825 8.6329C11.0437 8.9261 10.5279 9.0826 10.0003 9.0826C9.29346 9.08186 8.61576 8.8009 8.11575 8.3013C7.61573 7.80171 7.3342 7.12424 7.33287 6.41742ZM4.10742 15.0067C4.10728 15.17 4.13934 15.3317 4.20178 15.4827C4.26421 15.6336 4.35578 15.7707 4.47126 15.8862C4.58674 16.0016 4.72386 16.0932 4.87477 16.1557C5.02568 16.2181 5.18742 16.2501 5.35073 16.25H14.6498C14.8133 16.2506 14.9753 16.2189 15.1264 16.1567C15.2775 16.0944 15.4148 16.0029 15.5304 15.8873C15.646 15.7717 15.7376 15.6344 15.7998 15.4833C15.8621 15.3321 15.8938 15.1702 15.8931 15.0067C15.8965 13.9462 15.5815 12.9092 14.9889 12.0297C14.3964 11.1503 13.5536 10.4688 12.5695 10.0737C12.3682 9.99209 12.1526 9.95203 11.9355 9.95587C11.7184 9.9597 11.5043 10.0074 11.3061 10.096C10.8957 10.2814 10.4506 10.3772 10.0003 10.3772C9.54999 10.3772 9.10486 10.2814 8.69449 10.096C8.49704 10.0074 8.28369 9.95972 8.06731 9.95588C7.85093 9.95204 7.63602 9.99211 7.43555 10.0737C6.45253 10.4709 5.61055 11.1526 5.01758 12.0315C4.42461 12.9105 4.10768 13.9465 4.10742 15.0067Z" fill="#1A91A4"/>
</g>
<defs>
<clipPath id="clip0_18627_114203">
<rect width="20" height="20" fill="white"/>
</clipPath>
</defs>
</svg>
