<svg width="34" height="34" viewBox="0 0 34 34" fill="none" xmlns="http://www.w3.org/2000/svg">
<path d="M17.0002 33.6673C14.7224 33.6673 12.5696 33.2298 10.5418 32.3548C8.51405 31.4798 6.74322 30.2854 5.22933 28.7715C3.71544 27.2576 2.521 25.4868 1.646 23.459C0.770996 21.4312 0.333496 19.2784 0.333496 17.0007C0.333496 14.6951 0.770996 12.5354 1.646 10.5215C2.521 8.5076 3.71544 6.74371 5.22933 5.22982C6.74322 3.71593 8.51405 2.52148 10.5418 1.64648C12.5696 0.771484 14.7224 0.333984 17.0002 0.333984C19.3057 0.333984 21.4654 0.771484 23.4793 1.64648C25.4932 2.52148 27.2571 3.71593 28.771 5.22982C30.2849 6.74371 31.4793 8.5076 32.3543 10.5215C33.2293 12.5354 33.6668 14.6951 33.6668 17.0007C33.6668 19.2784 33.2293 21.4312 32.3543 23.459C31.4793 25.4868 30.2849 27.2576 28.771 28.7715C27.2571 30.2854 25.4932 31.4798 23.4793 32.3548C21.4654 33.2298 19.3057 33.6673 17.0002 33.6673ZM17.0002 30.2506C17.7224 29.2506 18.3474 28.209 18.8752 27.1256C19.4029 26.0423 19.8335 24.8895 20.1668 23.6673H13.8335C14.1668 24.8895 14.5974 26.0423 15.1252 27.1256C15.6529 28.209 16.2779 29.2506 17.0002 30.2506ZM12.6668 29.584C12.1668 28.6673 11.7293 27.7159 11.3543 26.7298C10.9793 25.7437 10.6668 24.7229 10.4168 23.6673H5.50016C6.30572 25.0562 7.31266 26.2645 8.521 27.2923C9.72933 28.3201 11.1113 29.084 12.6668 29.584ZM21.3335 29.584C22.8891 29.084 24.271 28.3201 25.4793 27.2923C26.6877 26.2645 27.6946 25.0562 28.5002 23.6673H23.5835C23.3335 24.7229 23.021 25.7437 22.646 26.7298C22.271 27.7159 21.8335 28.6673 21.3335 29.584ZM4.0835 20.334H9.75016C9.66683 19.7784 9.60433 19.2298 9.56266 18.6881C9.521 18.1465 9.50016 17.584 9.50016 17.0007C9.50016 16.4173 9.521 15.8548 9.56266 15.3132C9.60433 14.7715 9.66683 14.2229 9.75016 13.6673H4.0835C3.94461 14.2229 3.84044 14.7715 3.771 15.3132C3.70155 15.8548 3.66683 16.4173 3.66683 17.0007C3.66683 17.584 3.70155 18.1465 3.771 18.6881C3.84044 19.2298 3.94461 19.7784 4.0835 20.334ZM13.0835 20.334H20.9168C21.0002 19.7784 21.0627 19.2298 21.1043 18.6881C21.146 18.1465 21.1668 17.584 21.1668 17.0007C21.1668 16.4173 21.146 15.8548 21.1043 15.3132C21.0627 14.7715 21.0002 14.2229 20.9168 13.6673H13.0835C13.0002 14.2229 12.9377 14.7715 12.896 15.3132C12.8543 15.8548 12.8335 16.4173 12.8335 17.0007C12.8335 17.584 12.8543 18.1465 12.896 18.6881C12.9377 19.2298 13.0002 19.7784 13.0835 20.334ZM24.2502 20.334H29.9168C30.0557 19.7784 30.1599 19.2298 30.2293 18.6881C30.2988 18.1465 30.3335 17.584 30.3335 17.0007C30.3335 16.4173 30.2988 15.8548 30.2293 15.3132C30.1599 14.7715 30.0557 14.2229 29.9168 13.6673H24.2502C24.3335 14.2229 24.396 14.7715 24.4377 15.3132C24.4793 15.8548 24.5002 16.4173 24.5002 17.0007C24.5002 17.584 24.4793 18.1465 24.4377 18.6881C24.396 19.2298 24.3335 19.7784 24.2502 20.334ZM23.5835 10.334H28.5002C27.6946 8.9451 26.6877 7.73676 25.4793 6.70898C24.271 5.68121 22.8891 4.91732 21.3335 4.41732C21.8335 5.33398 22.271 6.28537 22.646 7.27148C23.021 8.25759 23.3335 9.27843 23.5835 10.334ZM13.8335 10.334H20.1668C19.8335 9.11176 19.4029 7.95898 18.8752 6.87565C18.3474 5.79232 17.7224 4.75065 17.0002 3.75065C16.2779 4.75065 15.6529 5.79232 15.1252 6.87565C14.5974 7.95898 14.1668 9.11176 13.8335 10.334ZM5.50016 10.334H10.4168C10.6668 9.27843 10.9793 8.25759 11.3543 7.27148C11.7293 6.28537 12.1668 5.33398 12.6668 4.41732C11.1113 4.91732 9.72933 5.68121 8.521 6.70898C7.31266 7.73676 6.30572 8.9451 5.50016 10.334Z" fill="#01859A"/>
</svg>
