<svg width="40" height="40" viewBox="0 0 20 9" fill="none" xmlns="http://www.w3.org/2000/svg">
<path d="M0.416708 8.82372V7.89105C0.416708 7.22545 0.71318 6.70061 1.30612 6.31653C1.89907 5.93245 2.70248 5.74041 3.71635 5.74041C3.89798 5.74041 4.08762 5.75216 4.28527 5.77568C4.48292 5.79918 4.68858 5.83176 4.90225 5.87343C4.69819 6.11915 4.53954 6.39559 4.42629 6.70274C4.31306 7.00989 4.25644 7.31423 4.25644 7.61576V8.82372H0.416687H0.416708ZM5.41669 8.82372V7.76124C5.41669 7.42861 5.50537 7.12457 5.68273 6.84911C5.86008 6.57366 6.09939 6.37129 6.40067 6.24201C6.97972 5.97386 7.56759 5.76927 8.16427 5.62824C8.76095 5.48721 9.36855 5.4167 9.98706 5.4167C10.6175 5.4167 11.231 5.48721 11.8277 5.62824C12.4244 5.76927 13.0123 5.97386 13.5913 6.24201C13.8926 6.37129 14.1333 6.57366 14.3133 6.84911C14.4933 7.12457 14.5833 7.42861 14.5833 7.76124V8.82372H5.41669ZM15.7436 8.82372V7.59882C15.7436 7.27218 15.6856 6.96439 15.5697 6.67543C15.4538 6.38648 15.2938 6.11915 15.0897 5.87343C15.3365 5.83176 15.5553 5.79918 15.746 5.77568C15.9367 5.75216 16.1186 5.74041 16.2916 5.74041C17.3055 5.74041 18.1076 5.93378 18.6979 6.32053C19.2882 6.70728 19.5833 7.23079 19.5833 7.89105V8.82372H15.7436ZM6.5016 7.74041H13.4904V7.65226C13.4466 7.35739 13.0641 7.09163 12.343 6.85499C11.6218 6.61834 10.8408 6.50001 10 6.50001C9.15918 6.50001 8.37819 6.61834 7.65704 6.85499C6.93589 7.09163 6.55074 7.35739 6.5016 7.65226V7.74041ZM3.71867 4.76445C4.1979 4.76445 4.6074 4.64198 4.94715 4.39703C5.2869 4.15207 5.45677 3.85761 5.45677 3.51364C5.45677 3.16591 5.28721 2.86892 4.9481 2.62266C4.60899 2.37639 4.20133 2.25326 3.72512 2.25326C3.22782 2.25326 2.81196 2.37473 2.47756 2.61768C2.14316 2.86062 1.97596 3.15862 1.97596 3.51168C1.97596 3.85434 2.14296 4.14881 2.47698 4.39507C2.81101 4.64132 3.2249 4.76445 3.71867 4.76445ZM16.2961 4.76445C16.7792 4.76445 17.1894 4.64114 17.5264 4.39451C17.8635 4.1479 18.0321 3.85507 18.0321 3.51601C18.0321 3.1667 17.8633 2.86892 17.5259 2.62266C17.1885 2.37639 16.7805 2.25326 16.302 2.25326C15.809 2.25326 15.3939 2.37473 15.0569 2.61768C14.7198 2.86062 14.5513 3.15782 14.5513 3.50928C14.5513 3.85689 14.7185 4.15299 15.0529 4.39757C15.3873 4.64216 15.8017 4.76445 16.2961 4.76445ZM9.99252 4.4167C9.39923 4.4167 8.89158 4.20636 8.46956 3.7857C8.04756 3.36503 7.83656 2.85422 7.83656 2.25326C7.83656 1.65418 8.0469 1.14384 8.46756 0.722239C8.88823 0.300642 9.39904 0.0898438 10 0.0898438C10.5991 0.0898438 11.1094 0.300371 11.531 0.721427C11.9526 1.14248 12.1634 1.65559 12.1634 2.26076C12.1634 2.85405 11.9529 3.3617 11.5319 3.7837C11.1108 4.2057 10.5977 4.4167 9.99252 4.4167ZM10.004 3.33341C10.306 3.33341 10.5609 3.22823 10.7686 3.01786C10.9763 2.80749 11.0801 2.55129 11.0801 2.24926C11.0801 1.94723 10.9766 1.69237 10.7696 1.48468C10.5626 1.27698 10.306 1.17314 10 1.17314C9.70064 1.17314 9.44578 1.27665 9.23542 1.48368C9.02505 1.6907 8.91987 1.94723 8.91987 2.25326C8.91987 2.55262 9.02505 2.80749 9.23542 3.01786C9.44578 3.22823 9.70197 3.33341 10.004 3.33341Z" fill="#01859A"/>
</svg>
