<svg width="182" height="151" viewBox="0 0 182 151" fill="none" xmlns="http://www.w3.org/2000/svg">
<path d="M179.9 103.3V126.2C179.9 129.3 177.4 131.8 174.3 131.8H162.9C161.6 139.7 154.6 145.8 146.4 145.8C138.2 145.8 131.2 139.7 129.9 131.8H67.5998C66.2998 139.7 59.2998 145.8 51.0998 145.8C42.8998 145.8 35.8998 139.7 34.5998 131.8H20.1998C19.3998 131.8 18.4998 131.7 17.7998 130.8C17.4998 130.2 17.4998 129.5 17.5998 128.5L24.1998 92.7004C24.1998 92.5004 24.1998 92.3004 24.2998 92.1004L25.6998 84.3004C25.6998 84.3004 25.8998 83.5004 26.1998 81.7004C26.5998 79.6004 26.6998 78.7004 26.6998 78.7004L27.6998 73.1004C27.6998 73.1004 27.7998 72.4004 28.0998 70.7004C28.3998 68.8004 28.6998 67.5004 28.6998 67.5004L29.6998 61.9004C29.6998 61.9004 29.8998 60.9004 30.1998 59.2004C30.4998 57.6004 30.7998 56.3004 30.7998 56.3004L31.7998 50.7004L32.2998 47.9004C32.5998 46.2004 32.7998 45.1004 32.7998 45.1004L34.3998 36.1004C34.3998 34.7004 35.4998 33.9004 36.8998 33.9004H137.9C138.7 33.9004 139.6 34.2004 140.1 34.7004C140.4 35.5004 140.7 36.1004 140.7 36.9004C140.6 37.9004 139.2 47.7004 135.5 59.0004H150.2C154.1 59.0004 157.5 61.5004 158.3 65.4004L165.3 93.4004L176.2 97.9004C178.6 98.8004 179.9 100.8 179.9 103.3Z" fill="white" stroke="#01859A" stroke-width="4" stroke-miterlimit="10"/>
<path d="M34.3998 84.6008L33.2998 90.6008H100.8C101.1 90.6008 101.4 90.6008 101.7 90.6008C101.8 90.6008 101.9 90.6008 101.9 90.6008C102.1 90.6008 102.4 90.6008 102.6 90.5008C102.8 90.5008 102.9 90.5008 103.1 90.4008C103.2 90.4008 103.2 90.4008 103.3 90.4008C114.3 88.8008 121.6 76.7008 125.9 65.6008C129.4 56.5008 131.3 47.4008 132.1 42.8008H41.7998L33.7998 88.0008" fill="white"/>
<path d="M34.3998 84.6008L33.2998 90.6008H100.8C101.1 90.6008 101.4 90.6008 101.7 90.6008C101.8 90.6008 101.9 90.6008 101.9 90.6008C102.1 90.6008 102.4 90.6008 102.6 90.5008C102.8 90.5008 102.9 90.5008 103.1 90.4008C103.2 90.4008 103.2 90.4008 103.3 90.4008C114.3 88.8008 121.6 76.7008 125.9 65.6008C129.4 56.5008 131.3 47.4008 132.1 42.8008H41.7998L33.7998 88.0008" stroke="#01859A" stroke-width="4" stroke-miterlimit="10"/>
<path d="M166.4 94.1012H147.6C147.6 94.1012 140.8 94.5012 140.8 88.9012V74.2012" fill="white"/>
<path d="M166.4 94.1012H147.6C147.6 94.1012 140.8 94.5012 140.8 88.9012V74.2012" stroke="#01859A" stroke-width="4" stroke-miterlimit="10"/>
<path d="M146.3 146.2C155.578 146.2 163.1 138.678 163.1 129.4C163.1 120.121 155.578 112.6 146.3 112.6C137.022 112.6 129.5 120.121 129.5 129.4C129.5 138.678 137.022 146.2 146.3 146.2Z" fill="white" stroke="#01859A" stroke-width="4" stroke-miterlimit="10"/>
<path d="M50.8 148.401C60.0784 148.401 67.6 140.879 67.6 131.601C67.6 122.322 60.0784 114.801 50.8 114.801C41.5216 114.801 34 122.322 34 131.601C34 140.879 41.5216 148.401 50.8 148.401Z" fill="white" stroke="#01859A" stroke-width="4" stroke-miterlimit="10"/>
<path d="M56.3997 131.6C56.3997 134.7 53.8997 137.2 50.7997 137.2C47.6997 137.2 45.1997 134.7 45.1997 131.6C45.1997 128.5 47.6997 126 50.7997 126C53.8997 126 56.3997 128.5 56.3997 131.6Z" fill="#01859A"/>
<path d="M152.1 129.6C152.1 132.7 149.6 135.2 146.5 135.2C143.4 135.2 140.9 132.7 140.9 129.6C140.9 126.5 143.4 124 146.5 124C149.6 124 152.1 126.5 152.1 129.6Z" fill="#01859A"/>
<path d="M44.1999 86.7992C68.1138 86.7992 87.4999 67.4131 87.4999 43.4992C87.4999 19.5853 68.1138 0.199219 44.1999 0.199219C20.286 0.199219 0.899902 19.5853 0.899902 43.4992C0.899902 67.4131 20.286 86.7992 44.1999 86.7992Z" fill="white"/>
<path d="M39.6998 73.0008C39.6998 73.9008 40.3998 74.7008 41.3998 74.7008H51.6998C52.5998 74.7008 53.3998 74.0008 53.3998 73.0008V69.8008C55.5998 69.2008 57.6998 68.4008 59.5998 67.2008L61.8998 69.5008C62.1998 69.8008 62.5998 70.0008 63.0998 70.0008C63.4998 70.0008 63.9998 69.8008 64.2998 69.5008L71.5998 62.2008C72.1998 61.6008 72.1998 60.5008 71.5998 59.9008L69.2998 57.6008C70.3998 55.6008 71.2998 53.6008 71.8998 51.4008H74.9998C75.8998 51.4008 76.6998 50.7008 76.6998 49.7008V39.4008C76.6998 38.5008 75.9998 37.7008 74.9998 37.7008H71.7998C71.1998 35.5008 70.3998 33.4008 69.1998 31.5008L71.3998 29.3008C71.6998 29.0008 71.8998 28.6008 71.8998 28.1008C71.8998 27.7008 71.6998 27.2008 71.3998 26.9008L64.0998 19.6008C63.4998 19.0008 62.3998 19.0008 61.7998 19.6008L59.5998 21.8008C57.5998 20.7008 55.5998 19.8008 53.3998 19.2008V16.0008C53.3998 15.1008 52.6998 14.3008 51.6998 14.3008H41.3998C40.4998 14.3008 39.6998 15.0008 39.6998 16.0008V19.2008C37.4998 19.8008 35.3998 20.6008 33.4998 21.8008L31.2998 19.6008C30.6998 19.0008 29.5998 19.0008 28.9998 19.6008L21.5998 27.0008C21.2998 27.3008 21.0998 27.7008 21.0998 28.2008C21.0998 28.6008 21.2998 29.1008 21.5998 29.4008L23.7998 31.6008C22.6998 33.6008 21.7998 35.6008 21.1998 37.8008H17.9998C17.0998 37.8008 16.2998 38.5008 16.2998 39.5008V49.8008C16.2998 50.2008 16.4998 50.7008 16.7998 51.0008C17.0998 51.3008 17.4998 51.5008 17.9998 51.5008H21.1998C21.7998 53.7008 22.5998 55.8008 23.7998 57.7008L21.4998 60.0008C20.8998 60.6008 20.8998 61.7008 21.4998 62.3008L28.7998 69.6008C29.0998 69.9008 29.4998 70.1008 29.9998 70.1008C30.3998 70.1008 30.8998 69.9008 31.1998 69.6008L33.4998 67.3008C35.4998 68.4008 37.4998 69.3008 39.6998 69.9008V73.0008Z" stroke="#01859A" stroke-width="4" stroke-miterlimit="10"/>
<path d="M60.1998 44.6004C60.1998 37.1004 54.0998 30.9004 46.4998 30.9004C38.8998 30.9004 32.7998 37.0004 32.7998 44.6004C32.7998 52.2004 38.9998 58.3004 46.4998 58.3004C53.9998 58.3004 60.1998 52.1004 60.1998 44.6004Z" stroke="#01859A" stroke-width="4" stroke-miterlimit="10"/>
</svg>
