<svg width="135" height="161" viewBox="0 0 135 161" fill="none" xmlns="http://www.w3.org/2000/svg">
<path d="M74.3999 158.4H15.5999C8.2999 158.4 2.3999 152.5 2.3999 145.2V15.2C2.3999 7.9 8.2999 2 15.5999 2H74.2999C81.5999 2 87.4999 7.9 87.4999 15.2V145.2C87.5999 152.4 81.5999 158.4 74.3999 158.4Z" stroke="#01859A" stroke-width="4" stroke-miterlimit="10"/>
<path d="M2.3999 20.8008H88.5999" stroke="#01859A" stroke-width="4" stroke-miterlimit="10"/>
<path d="M2.3999 135.6H88.5999" stroke="#01859A" stroke-width="4" stroke-miterlimit="10"/>
<path d="M128.2 84.6H60.8002L52.4002 90.9L52.0002 84.6C49.6002 84.6 47.7002 82.7 47.7002 80.3V42.3C47.7002 39.9 49.6002 38 52.0002 38H128.2C130.6 38 132.5 39.9 132.5 42.3V80.2C132.5 82.6 130.6 84.6 128.2 84.6Z" fill="white" stroke="#01859A" stroke-width="4" stroke-miterlimit="10"/>
<path d="M70.5004 68.2C73.5932 68.2 76.1004 65.6928 76.1004 62.6C76.1004 59.5072 73.5932 57 70.5004 57C67.4076 57 64.9004 59.5072 64.9004 62.6C64.9004 65.6928 67.4076 68.2 70.5004 68.2Z" fill="#01859A"/>
<path d="M90.7006 68.2C93.7934 68.2 96.3006 65.6928 96.3006 62.6C96.3006 59.5072 93.7934 57 90.7006 57C87.6078 57 85.1006 59.5072 85.1006 62.6C85.1006 65.6928 87.6078 68.2 90.7006 68.2Z" fill="#01859A"/>
<path d="M110.5 68.2C113.593 68.2 116.1 65.6928 116.1 62.6C116.1 59.5072 113.593 57 110.5 57C107.408 57 104.9 59.5072 104.9 62.6C104.9 65.6928 107.408 68.2 110.5 68.2Z" fill="#01859A"/>
</svg>
