<svg width="174" height="159" viewBox="0 0 174 159" fill="none" xmlns="http://www.w3.org/2000/svg">
<path d="M49.0001 127.099H8.0001C5.0001 127.099 2.6001 124.699 2.6001 121.699V26.1988C2.6001 23.1988 5.0001 20.7988 8.0001 20.7988H159.5C162.5 20.7988 164.9 23.1988 164.9 26.1988V121.599C164.9 124.599 162.5 126.999 159.5 126.999H107.6" stroke="#01859A" stroke-width="4" stroke-miterlimit="10"/>
<path d="M2.6001 41.498H164.9" stroke="#01859A" stroke-width="4" stroke-miterlimit="10"/>
<path d="M15.8999 34.0996C17.5568 34.0996 18.8999 32.7565 18.8999 31.0996C18.8999 29.4428 17.5568 28.0996 15.8999 28.0996C14.243 28.0996 12.8999 29.4428 12.8999 31.0996C12.8999 32.7565 14.243 34.0996 15.8999 34.0996Z" fill="#01859A"/>
<path d="M24.6997 34.0996C26.3566 34.0996 27.6997 32.7565 27.6997 31.0996C27.6997 29.4428 26.3566 28.0996 24.6997 28.0996C23.0429 28.0996 21.6997 29.4428 21.6997 31.0996C21.6997 32.7565 23.0429 34.0996 24.6997 34.0996Z" fill="#01859A"/>
<path d="M33.6001 34.0996C35.257 34.0996 36.6001 32.7565 36.6001 31.0996C36.6001 29.4428 35.257 28.0996 33.6001 28.0996C31.9432 28.0996 30.6001 29.4428 30.6001 31.0996C30.6001 32.7565 31.9432 34.0996 33.6001 34.0996Z" fill="#01859A"/>
<path d="M115.7 95.2004H45.6002C38.2002 95.2004 32.2002 89.2004 32.2002 81.8004C32.2002 74.4004 38.2002 68.4004 45.6002 68.4004H115.7C123.1 68.4004 129.1 74.4004 129.1 81.8004C129.1 89.2004 123.1 95.2004 115.7 95.2004Z" stroke="#01859A" stroke-width="4" stroke-miterlimit="10"/>
<path d="M106.6 105.7C119.8 105.7 130.5 95 130.5 81.8004C130.5 68.6008 119.8 57.9004 106.6 57.9004C93.4006 57.9004 82.7002 68.6008 82.7002 81.8004C82.7002 95 93.4006 105.7 106.6 105.7Z" fill="#FFF9FD" stroke="#01859A" stroke-width="4" stroke-miterlimit="10"/>
<path d="M147.5 50.3996C160.7 50.3996 171.4 39.6992 171.4 26.4996C171.4 13.3 160.7 2.59961 147.5 2.59961C134.3 2.59961 123.6 13.3 123.6 26.4996C123.6 39.6992 134.3 50.3996 147.5 50.3996Z" fill="#FFF9FD" stroke="#01859A" stroke-width="4" stroke-miterlimit="10"/>
<path d="M119.1 87.2992C119.6 87.8992 119.9 88.4992 119.9 89.1992C119.9 89.8992 119.7 90.4992 119.2 91.0992C118.7 91.5992 118.1 91.8992 117.3 91.8992H111C111 92.8992 110.7 93.6992 110 94.3992C109.3 95.0992 108.5 95.3992 107.5 95.3992C106.5 95.3992 105.7 95.0992 105 94.3992C104.3 93.6992 104 92.8992 104 91.8992H97.8002C97.0002 91.8992 96.4002 91.5992 95.9002 91.0992C95.4002 90.5992 95.2002 89.9992 95.2002 89.1992C95.2002 88.4992 95.5002 87.7992 96.0002 87.2992C96.6002 86.6992 97.0002 86.2992 97.2002 85.7992C97.6002 85.0992 98.0002 84.1992 98.2002 83.1992C98.5002 81.8992 98.6002 80.3992 98.6002 78.5992C98.6002 77.1992 98.9002 75.7992 99.6002 74.5992C100.3 73.3992 101.1 72.2992 102.3 71.4992C103.4 70.6992 104.7 70.0992 106.1 69.8992C105.9 69.5992 105.8 69.2992 105.8 68.8992C105.8 68.3992 106 67.9992 106.3 67.6992C106.6 67.3992 107.1 67.1992 107.5 67.1992C108 67.1992 108.4 67.3992 108.7 67.6992C109 68.0992 109.2 68.4992 109.2 68.8992C109.2 69.2992 109.1 69.5992 108.9 69.8992C110.3 70.0992 111.6 70.5992 112.7 71.4992C113.8 72.2992 114.7 73.3992 115.4 74.5992C116.1 75.7992 116.4 77.1992 116.4 78.5992C116.4 80.3992 116.5 81.9992 116.8 83.1992C117.1 84.1992 117.4 85.0992 117.8 85.7992C118.1 86.2992 118.5 86.7992 119.1 87.2992ZM107.5 93.1992C107.1 93.1992 106.8 93.0992 106.6 92.7992C106.4 92.4992 106.2 92.1992 106.2 91.8992H105.3C105.3 92.4992 105.5 93.0992 105.9 93.4992C106.3 93.8992 106.8 94.0992 107.5 94.0992C107.6 94.0992 107.7 94.0992 107.8 93.9992C107.9 93.8992 107.9 93.7992 107.9 93.6992C107.9 93.5992 107.9 93.4992 107.8 93.3992C107.7 93.1992 107.6 93.1992 107.5 93.1992Z" fill="#01859A"/>
<path d="M56.2 130.399C56.2 130.699 56.4 134.299 57.6 140.299C58.9 146.899 63.8 149.799 64.6 150.499V158.299H90.2C92.4 158.299 94.1 156.499 94.1 154.399C94.1 154.499 94.1 153.099 94.1 152.999C94.1 151.199 94.7 149.499 95.7 147.999C99.8 142.599 99 137.099 99.1 136.499C99.1 129.999 99.1 121.999 99.1 115.399C99.1 112.899 97 110.799 94.5 110.799C92.2 110.799 90.2 112.599 89.9 114.899V112.399C89.9 111.099 88.9 110.099 87.6 110.099H85.3C82.8 110.099 80.7 112.199 80.7 114.699V114.299C80.7 111.799 78.6 109.699 76.1 109.699C73.6 109.699 71.5 111.799 71.5 114.299V91.7987C71.5 89.0987 69.2 86.9987 66.5 87.1987C64.1 87.3987 62.3 89.5987 62.3 91.9987V122.599C58.6 123.199 55.9 126.599 56.2 130.399Z" fill="#01859A"/>
<path d="M146.096 25.1045C144.23 24.5576 142.912 23.7959 142.141 22.8193C141.379 21.8428 140.998 20.666 140.998 19.2891C140.998 18.3809 141.145 17.5557 141.438 16.8135C141.74 16.0713 142.16 15.4316 142.697 14.8945C143.391 14.2012 144.162 13.7227 145.012 13.459C145.529 13.293 146.286 13.1709 147.282 13.0928V11.1445H148.674V13.1221C150.266 13.249 151.516 13.6396 152.424 14.2939C154.074 15.3389 154.929 17.0332 154.987 19.377H151.135C151.057 18.5078 150.91 17.873 150.695 17.4727C150.324 16.7793 149.65 16.3984 148.674 16.3301V21.9111C150.998 22.7119 152.561 23.4199 153.361 24.0352C154.68 25.0605 155.339 26.5059 155.339 28.3711C155.339 30.832 154.436 32.6191 152.629 33.7324C151.525 34.416 150.217 34.8164 148.703 34.9336V37.8779H147.282V34.9629C145.358 34.748 143.923 34.3281 142.976 33.7031C141.306 32.5801 140.485 30.666 140.515 27.9609H144.47C144.606 29.1914 144.797 30.0166 145.041 30.4365C145.422 31.0908 146.169 31.5156 147.282 31.7109V25.4561L146.096 25.1045ZM148.674 25.9395V31.667C149.445 31.5693 150.007 31.3936 150.358 31.1396C150.974 30.6904 151.281 29.9141 151.281 28.8105C151.281 27.9707 150.993 27.3066 150.417 26.8184C150.075 26.5352 149.494 26.2422 148.674 25.9395ZM147.282 21.501V16.3594C146.433 16.3789 145.803 16.6084 145.393 17.0479C144.982 17.4775 144.777 18.0684 144.777 18.8203C144.777 19.6406 145.085 20.29 145.7 20.7686C146.042 21.0322 146.569 21.2764 147.282 21.501Z" fill="#01859A"/>
<path d="M130.4 9.59961L164.4 44.2996" stroke="#01859A" stroke-width="4" stroke-miterlimit="10"/>
</svg>
