<svg width="170" height="181" viewBox="0 0 170 181" fill="none" xmlns="http://www.w3.org/2000/svg">
<path d="M70.9001 93.0991C71.1001 98.5991 67.1001 102.499 61.5001 102.399C55.9001 102.299 52.2001 98.6991 52.1001 93.0991C52.1001 87.0991 56.1001 83.7991 61.4001 83.6991C67.2001 83.5991 71.1001 87.5991 70.9001 93.0991ZM61.6001 87.2991C58.1001 86.9991 55.7001 89.9991 55.7001 92.9991C55.7001 96.3991 58.1001 98.7991 61.5001 98.8991C65.0001 98.9991 67.4001 96.2991 67.4001 93.0991C67.5001 89.6991 65.0001 87.2991 61.6001 87.2991Z" fill="#01859A"/>
<path d="M72 102.899V83.6992L83.7 92.7992V96.7992L76 91.2992V102.799L72 102.899Z" fill="#01859A"/>
<path d="M97.0003 83.6992H90.2003H86.8003H86.3003V99.6992L90.2003 102.799V87.4992H97.0003V83.6992Z" fill="#01859A"/>
<path d="M127.6 97.3998C126.6 98.3998 125.2 98.9998 123.5 98.8998C120.2 98.8998 117.9 96.6998 117.9 93.2998C117.9 89.6998 120.3 87.5998 123.5 87.5998C125.2 87.5998 126.6 88.1998 127.6 89.1998L130.5 86.3998C128.8 84.6998 126.4 83.6998 123.5 83.7998C118 83.8998 113.9 87.2998 114 93.3998C114 99.0998 117.8 102.9 123.6 102.9C126.4 102.9 128.9 102 130.6 100.3L127.6 97.3998Z" fill="#01859A"/>
<path d="M103.4 83.6992H99.7002C99.8002 84.3992 99.7002 85.0992 99.5002 85.7992C99.5002 86.0992 99.5002 86.3992 99.4002 86.6992C99.4002 86.7992 99.5002 86.9992 99.5002 87.0992H103.2C106.5 87.0992 109.1 89.6992 109.1 92.9992C109.1 96.2992 106.5 98.8992 103.2 98.8992H96.8002V92.2992C96.3002 92.4992 95.7002 92.5992 95.1002 92.5992C94.4002 92.5992 93.8002 92.4992 93.2002 92.1992V102.399H103.3C108.5 102.399 112.7 98.1992 112.7 92.9992C112.8 87.8992 108.6 83.6992 103.4 83.6992Z" fill="#01859A"/>
<path d="M31.1001 158.901L58.4001 130.701" stroke="#01859A" stroke-width="4" stroke-miterlimit="10"/>
<path d="M134.7 144.1L120.8 128.5" stroke="#01859A" stroke-width="4" stroke-miterlimit="10"/>
<path d="M21.8999 67.8008L44.8999 74.1008" stroke="#01859A" stroke-width="4" stroke-miterlimit="10"/>
<path d="M54.8003 37.7012L64.5003 51.6012" stroke="#01859A" stroke-width="4" stroke-miterlimit="10"/>
<path d="M90.3003 141.401C116.81 141.401 138.3 119.642 138.3 92.8012C138.3 65.9601 116.81 44.2012 90.3003 44.2012C63.7906 44.2012 42.3003 65.9601 42.3003 92.8012C42.3003 119.642 63.7906 141.401 90.3003 141.401Z" stroke="#01859A" stroke-width="4" stroke-miterlimit="10"/>
<path d="M146.3 174.701C156.241 174.701 164.3 166.642 164.3 156.701C164.3 146.76 156.241 138.701 146.3 138.701C136.359 138.701 128.3 146.76 128.3 156.701C128.3 166.642 136.359 174.701 146.3 174.701Z" stroke="#01859A" stroke-width="4" stroke-miterlimit="10"/>
<path d="M22.7001 63.0993C24.1001 70.4993 17.8001 76.7993 10.4001 75.3993C6.30009 74.5993 3.00009 71.2993 2.20009 67.1993C0.800089 59.7993 7.10009 53.4993 14.5001 54.8993C18.6001 55.6993 21.9001 58.9993 22.7001 63.0993Z" stroke="#01859A" stroke-width="4" stroke-miterlimit="10"/>
<path d="M58.9003 26.9001C60.3003 34.3001 54.0003 40.6001 46.6003 39.2001C42.5003 38.4001 39.2003 35.1001 38.4003 31.0001C37.0003 23.6001 43.3003 17.3001 50.7003 18.7001C54.8003 19.5001 58.2003 22.8001 58.9003 26.9001Z" stroke="#01859A" stroke-width="4" stroke-miterlimit="10"/>
<path d="M167.1 14.3002C168.5 23.7002 160.6 31.6002 151.2 30.2002C145.4 29.3002 140.6 24.5002 139.7 18.7002C138.3 9.30023 146.2 1.40023 155.6 2.80023C161.5 3.70023 166.2 8.50023 167.1 14.3002Z" stroke="#01859A" stroke-width="4" stroke-miterlimit="10"/>
<path d="M32.9003 165.8C34.3003 173.2 28.0003 179.5 20.6003 178.1C16.5003 177.3 13.2003 174 12.4003 169.9C11.0003 162.5 17.3003 156.2 24.7003 157.6C28.8003 158.4 32.2003 161.7 32.9003 165.8Z" stroke="#01859A" stroke-width="4" stroke-miterlimit="10"/>
<path d="M121.1 54.1012L145 27.2012" stroke="#01859A" stroke-width="4" stroke-miterlimit="10"/>
</svg>
