<svg width="58" height="47" viewBox="0 0 58 47" fill="none" xmlns="http://www.w3.org/2000/svg">
<g filter="url(#filter0_d_145_437)">
<rect x="4" y="3" width="49.8317" height="39" rx="5" fill="#01859a" fill-opacity="0.9" shape-rendering="crispEdges"/>
<path d="M41.4787 21.6302H36.0671V12.3531C36.0671 11.6072 35.4602 11 34.7141 11H23.1176C22.3718 11 21.7646 11.6069 21.7646 12.3531V21.6302H16.3531C15.6072 21.6302 15 22.2371 15 22.9833V32.6469C15 33.3928 15.6069 34 16.3531 34H27.9495C28.3283 34 28.67 33.8425 28.9159 33.591C29.1618 33.8425 29.5034 34 29.8822 34H41.4787C42.2245 34 42.8317 33.3931 42.8317 32.6469V22.9833C42.8317 22.2374 42.2245 21.6302 41.4787 21.6302ZM22.5378 12.3531C22.5378 12.0333 22.798 11.7733 23.1175 11.7733H26.5963V16.2185C26.5963 16.3649 26.6791 16.4987 26.8099 16.5642C26.9412 16.6294 27.0978 16.6159 27.2146 16.5275L28.9158 15.2521L30.6166 16.5277C30.6846 16.5789 30.7665 16.6051 30.8485 16.6051C30.9073 16.6051 30.9666 16.5916 31.0214 16.5644C31.1524 16.4986 31.2352 16.3649 31.2352 16.2184V11.7733H34.714C35.0338 11.7733 35.2937 12.0335 35.2937 12.353V21.6301H29.8821C29.7883 21.6301 29.6966 21.6398 29.6082 21.6582C29.5753 21.6649 29.5454 21.6784 29.5136 21.6876C29.4594 21.7029 29.4044 21.7161 29.3531 21.7383C29.3167 21.7536 29.2841 21.776 29.2496 21.7946C29.2067 21.8175 29.1625 21.8375 29.1226 21.8647C29.0889 21.8876 29.06 21.9165 29.0288 21.9421C28.9926 21.9718 28.9546 21.999 28.9217 22.0322C28.9198 22.034 28.9177 22.0354 28.9158 22.0373C28.9139 22.0354 28.9117 22.034 28.9098 22.0324C28.877 21.9993 28.8389 21.972 28.8028 21.9424C28.7715 21.9165 28.7427 21.8879 28.709 21.865C28.6691 21.8378 28.6246 21.8178 28.582 21.7949C28.5472 21.7763 28.5148 21.7539 28.4784 21.7385C28.4272 21.7167 28.3722 21.7035 28.318 21.6878C28.2862 21.6787 28.2563 21.6652 28.2234 21.6584C28.1349 21.6401 28.0432 21.6301 27.9494 21.6301H22.5379L22.5378 12.3531ZM27.9493 33.2266H16.3529C16.0331 33.2266 15.7732 32.9664 15.7732 32.6469V22.9832C15.7732 22.6634 16.0334 22.4035 16.3529 22.4035H19.8317V26.8487C19.8317 26.9951 19.9145 27.1288 20.0453 27.1943C20.1763 27.2596 20.3332 27.2461 20.45 27.1577L22.1511 25.8823L23.852 27.1579C23.92 27.2091 24.0019 27.2353 24.0839 27.2353C24.1427 27.2353 24.202 27.2218 24.2567 27.1946C24.3878 27.1288 24.4706 26.995 24.4706 26.8486V22.4035H27.9494C28.2691 22.4035 28.5291 22.6636 28.5291 22.9832V32.6469C28.5291 32.9666 28.2691 33.2266 27.9493 33.2266ZM42.0583 32.6469C42.0583 32.9667 41.7981 33.2266 41.4786 33.2266H29.8822C29.5624 33.2266 29.3025 32.9664 29.3025 32.6469V22.9832C29.3025 22.6634 29.5627 22.4035 29.8822 22.4035H33.361V26.8487C33.361 26.9951 33.4438 27.1288 33.5745 27.1943C33.7056 27.2596 33.8625 27.2461 33.9793 27.1577L35.6804 25.8823L37.3813 27.1579C37.4492 27.2091 37.5312 27.2353 37.6132 27.2353C37.672 27.2353 37.7313 27.2218 37.786 27.1946C37.9171 27.1288 37.9998 26.995 37.9998 26.8486V22.4035H41.4786C41.7984 22.4035 42.0583 22.6636 42.0583 22.9832L42.0583 32.6469Z" fill="white"/>
</g>
<defs>
<filter id="filter0_d_145_437" x="0" y="0" width="57.832" height="47" filterUnits="userSpaceOnUse" color-interpolation-filters="sRGB">
<feFlood flood-opacity="0" result="BackgroundImageFix"/>
<feColorMatrix in="SourceAlpha" type="matrix" values="0 0 0 0 0 0 0 0 0 0 0 0 0 0 0 0 0 0 127 0" result="hardAlpha"/>
<feOffset dy="1"/>
<feGaussianBlur stdDeviation="2"/>
<feComposite in2="hardAlpha" operator="out"/>
<feColorMatrix type="matrix" values="0 0 0 0 0 0 0 0 0 0 0 0 0 0 0 0 0 0 0.2 0"/>
<feBlend mode="normal" in2="BackgroundImageFix" result="effect1_dropShadow_145_437"/>
<feBlend mode="normal" in="SourceGraphic" in2="effect1_dropShadow_145_437" result="shape"/>
</filter>
</defs>
</svg>
