<svg width="150" height="150" viewBox="0 0 150 150" fill="none" xmlns="http://www.w3.org/2000/svg">
<g clip-path="url(#clip0_621_1517)">
<path d="M26.7899 64.2897C35.0099 64.2897 43.0499 60.9447 48.8699 55.1247L81.9449 21.9897C86.9849 16.9347 86.9849 8.72969 81.9449 3.65969C77.0549 -1.23031 68.5349 -1.23031 63.6599 3.65969L30.5699 36.7947C24.7499 42.6147 21.4199 50.6847 21.4199 58.9197C21.4349 61.8897 23.8199 64.2897 26.7899 64.2897Z" fill="#01859A"/>
<path d="M147.045 102.345L125.61 91.6348C124.11 90.8848 122.325 90.8848 120.825 91.6348L99.3899 102.345C99.2099 102.435 99.0599 102.585 98.8799 102.69L123.21 114.855L147.54 102.69C147.375 102.585 147.225 102.45 147.045 102.345Z" fill="#01859A"/>
<path d="M96.4351 133.934C96.4351 135.959 97.5751 137.819 99.3901 138.719L120.54 149.999V119.519L96.4351 107.459V133.934Z" fill="#01859A"/>
<path d="M125.895 149.999L147.045 138.719C148.86 137.804 150 135.959 150 133.934V107.459L125.895 119.519V149.999Z" fill="#01859A"/>
<path d="M80.355 42.8555H68.715L52.65 58.9355C45.84 65.7455 36.42 69.6455 26.79 69.6455C20.88 69.6455 16.08 64.8305 16.08 58.9355C16.08 53.3405 17.43 47.8505 19.86 42.8705H5.355C2.4 42.8555 0 45.2555 0 48.2105V144.645C0 147.6 2.4 150 5.355 150H80.355C83.31 150 85.71 147.6 85.71 144.645V48.2105C85.71 45.2555 83.31 42.8555 80.355 42.8555ZM31.365 122.43L20.655 133.14C20.13 133.665 19.44 133.92 18.765 133.92C18.09 133.92 17.4 133.665 16.875 133.14L11.52 127.785C10.47 126.735 10.47 125.04 11.52 123.99C12.57 122.94 14.265 122.94 15.315 123.99L18.78 127.455L27.6 118.635C28.65 117.585 30.345 117.585 31.395 118.635C32.4 119.685 32.4 121.38 31.365 122.43ZM31.365 100.995L20.655 111.705C20.115 112.245 19.44 112.5 18.75 112.5C18.06 112.5 17.385 112.245 16.86 111.72L11.505 106.365C10.455 105.315 10.455 103.62 11.505 102.57C12.555 101.52 14.25 101.52 15.3 102.57L18.765 106.035L27.585 97.2155C28.635 96.1655 30.33 96.1655 31.38 97.2155C32.4 98.2655 32.4 99.9605 31.365 100.995ZM31.365 79.5755L20.655 90.2855C20.13 90.8105 19.44 91.0655 18.765 91.0655C18.09 91.0655 17.4 90.8105 16.875 90.2855L11.52 84.9305C10.47 83.8805 10.47 82.1855 11.52 81.1355C12.57 80.0855 14.265 80.0855 15.315 81.1355L18.78 84.6005L27.6 75.7805C28.65 74.7305 30.345 74.7305 31.395 75.7805C32.445 76.8305 32.4 78.5255 31.365 79.5755ZM72.315 133.935H40.185C38.7 133.935 37.5 132.735 37.5 131.25C37.5 129.765 38.7 128.565 40.185 128.565H72.33C73.815 128.565 75.015 129.765 75.015 131.25C75.015 132.735 73.8 133.935 72.315 133.935ZM72.315 112.5H40.185C38.7 112.5 37.5 111.3 37.5 109.815C37.5 108.33 38.7 107.13 40.185 107.13H72.33C73.815 107.13 75.015 108.33 75.015 109.815C75 111.3 73.8 112.5 72.315 112.5ZM72.315 91.0655H40.185C38.7 91.0655 37.5 89.8655 37.5 88.3805C37.5 86.8955 38.7 85.6955 40.185 85.6955H72.33C73.815 85.6955 75.015 86.8955 75.015 88.3805C75 89.8805 73.8 91.0655 72.315 91.0655Z" fill="#01859A"/>
<path d="M144.645 0H133.935C130.98 0 128.58 2.4 128.58 5.355C128.58 7.665 130.05 9.585 132.09 10.335L117.87 24.555L110.94 17.625C108.84 15.525 105.45 15.525 103.365 17.625L87.285 33.705C85.185 35.805 85.185 39.195 87.285 41.28C88.335 42.33 89.7 42.855 91.08 42.855C92.46 42.855 93.825 42.33 94.875 41.28L107.16 28.995L114.09 35.925C116.19 38.025 119.58 38.025 121.665 35.925L139.68 17.91C140.43 19.95 142.365 21.42 144.66 21.42C147.615 21.42 150.015 19.02 150.015 16.065V5.355C150 2.4 147.6 0 144.645 0Z" fill="#01859A"/>
</g>
<defs>
<clipPath id="clip0_621_1517">
<rect width="150" height="150" fill="white"/>
</clipPath>
</defs>
</svg>
