<svg width="35" height="35" viewBox="0 0 16 12" fill="none" xmlns="http://www.w3.org/2000/svg">
<path d="M0 12V10.0833C0 9.72222 0.0868056 9.39236 0.260417 9.09375C0.434028 8.79514 0.673611 8.55556 0.979167 8.375C1.72917 7.93056 2.52778 7.59028 3.375 7.35417C4.22222 7.11806 5.09722 7 6 7C6.31944 7 6.64236 7.02083 6.96875 7.0625C7.29514 7.10417 7.63889 7.16667 8 7.25L6.72917 8.54167C6.52083 8.51389 6.36806 8.5 6.27083 8.5H6C5.26389 8.5 4.53472 8.59722 3.8125 8.79167C3.09028 8.98611 2.39583 9.27778 1.72917 9.66667C1.66042 9.70751 1.60503 9.7647 1.56302 9.83823C1.52101 9.91176 1.5 9.99346 1.5 10.0833V10.5H7.45833L8.9375 12H0ZM11.0417 12L8.22917 9.16667L9.27083 8.10417L11.0417 9.875L14.9375 6L16 7.04167L11.0417 12ZM6 6C5.16667 6 4.45833 5.70833 3.875 5.125C3.29167 4.54167 3 3.83333 3 3C3 2.16667 3.29167 1.45833 3.875 0.875C4.45833 0.291667 5.16667 0 6 0C6.83333 0 7.54167 0.291667 8.125 0.875C8.70833 1.45833 9 2.16667 9 3C9 3.83333 8.70833 4.54167 8.125 5.125C7.54167 5.70833 6.83333 6 6 6ZM6.00442 4.5C6.41814 4.5 6.77083 4.3527 7.0625 4.05808C7.35417 3.76346 7.5 3.40929 7.5 2.99558C7.5 2.58186 7.35269 2.22917 7.05808 1.9375C6.76346 1.64583 6.40929 1.5 5.99558 1.5C5.58186 1.5 5.22917 1.64731 4.9375 1.94192C4.64583 2.23654 4.5 2.59071 4.5 3.00442C4.5 3.41814 4.64731 3.77083 4.94192 4.0625C5.23654 4.35417 5.59071 4.5 6.00442 4.5Z" fill="#01859A"/>
</svg>

