<svg width="30" height="30" viewBox="0 0 10 14" fill="none" xmlns="http://www.w3.org/2000/svg">
<path d="M6.39583 14L1 8.5V7H3.75C4.44444 7 5.0625 6.75347 5.60417 6.26042C6.14583 5.76736 6.44444 5.18056 6.5 4.5H0.5V3H6.20833C5.94444 2.51389 5.60069 2.14236 5.17708 1.88542C4.75347 1.62847 4.27778 1.5 3.75 1.5H0.5V0H9.5V1.5H7C7.18056 1.73611 7.34375 1.96875 7.48958 2.19792C7.63542 2.42708 7.74306 2.69444 7.8125 3H9.5V4.5H8C7.93056 5.625 7.48611 6.57292 6.66667 7.34375C5.84722 8.11458 4.875 8.5 3.75 8.5H3.10417L8.5 14H6.39583Z" fill="#01859A"/>
</svg>
