<svg width="168" height="137" viewBox="0 0 168 137" fill="none" xmlns="http://www.w3.org/2000/svg">
    <path
        d="M102.3 108.4H8.2999C5.2999 108.4 2.8999 106 2.8999 103V7.49961C2.8999 4.49961 5.2999 2.09961 8.2999 2.09961H159.8C162.8 2.09961 165.2 4.49961 165.2 7.49961V102.9C165.2 105.9 162.8 108.3 159.8 108.3H150.9"
        stroke="#01859A" stroke-width="4" stroke-miterlimit="10" />
    <path d="M2.7998 22.7988H165.2" stroke="#01859A" stroke-width="4" stroke-miterlimit="10" />
    <path
        d="M16.0996 15.4004C17.7565 15.4004 19.0996 14.0572 19.0996 12.4004C19.0996 10.7435 17.7565 9.40039 16.0996 9.40039C14.4428 9.40039 13.0996 10.7435 13.0996 12.4004C13.0996 14.0572 14.4428 15.4004 16.0996 15.4004Z"
        fill="#01859A" />
    <path
        d="M24.9995 15.4004C26.6564 15.4004 27.9995 14.0572 27.9995 12.4004C27.9995 10.7435 26.6564 9.40039 24.9995 9.40039C23.3427 9.40039 21.9995 10.7435 21.9995 12.4004C21.9995 14.0572 23.3427 15.4004 24.9995 15.4004Z"
        fill="#01859A" />
    <path
        d="M33.7998 15.4004C35.4567 15.4004 36.7998 14.0572 36.7998 12.4004C36.7998 10.7435 35.4567 9.40039 33.7998 9.40039C32.143 9.40039 30.7998 10.7435 30.7998 12.4004C30.7998 14.0572 32.143 15.4004 33.7998 15.4004Z"
        fill="#01859A" />
    <path
        d="M50.5698 72.2285L47.23 56.7207L43.8511 72.2285H38.0698L32.0933 50.9395H38.0698L41.3901 66.2129L44.4565 50.9395H50.1011L53.3433 66.2715L56.6636 50.9395H62.4644L56.2925 72.2285H50.5698ZM81.7026 72.2285L78.3628 56.7207L74.9839 72.2285H69.2026L63.2261 50.9395H69.2026L72.5229 66.2129L75.5894 50.9395H81.2339L84.4761 66.2715L87.7964 50.9395H93.5972L87.4253 72.2285H81.7026ZM112.835 72.2285L109.496 56.7207L106.117 72.2285H100.335L94.3589 50.9395H100.335L103.656 66.2129L106.722 50.9395H112.367L115.609 66.2715L118.929 50.9395H124.73L118.558 72.2285H112.835ZM126.234 66.4082H132.152V72.2285H126.234V66.4082Z"
        fill="#01859A" />
    <path
        d="M138.2 109.199C142.6 114.299 146.1 118.599 149.8 122.699C152 125.199 151.7 126.999 149.2 129.099C136.9 139.299 140.4 139.099 130.7 128.099C128.8 125.999 127 123.799 124.9 121.499C123.9 122.199 123.1 122.599 122.4 123.199C115.8 128.699 115.1 128.499 113.3 120.299C111 110.599 108.8 100.799 106.7 90.9995C105.8 86.8995 107.4 85.4995 111.3 86.9995C121.7 90.9995 132 95.0995 142.3 99.2995C146 100.799 146.2 102.499 143.4 105.199C142.6 105.999 141.8 106.699 140.9 107.399C140.1 107.999 139.3 108.399 138.2 109.199Z"
        fill="#01859A" />
</svg>