<svg width="1000" height="378" viewBox="0 0 1000 378" fill="none" xmlns="http://www.w3.org/2000/svg">
<g clip-path="url(#clip0_1_65)">
<g clip-path="url(#clip1_1_65)">
<mask id="mask0_1_65" style="mask-type:luminance" maskUnits="userSpaceOnUse" x="1" y="-1" width="998" height="380">
<g clip-path="url(#clip2_1_65)">
<g clip-path="url(#clip3_1_65)">
<g clip-path="url(#clip4_1_65)">
<g clip-path="url(#clip5_1_65)">
<path fill-rule="evenodd" clip-rule="evenodd" d="M302.332 214.799V206.341H323.262L334.257 101.458H80.0963L87.2813 168.28H109.483V176.738H88.1313L96.1663 251.168H297.042V259.626H97.0121L98.285 272.313H316.284L322.42 214.799H302.332ZM323.477 315.021C330.802 322.35 334.473 331.163 334.473 341.452C334.473 351.462 330.738 360.059 323.266 367.253C316.36 374.442 307.762 378.037 297.469 378.037C287.176 378.037 278.439 374.442 271.245 367.253C264.06 359.78 260.466 351.183 260.466 341.452C260.466 331.163 264.06 322.422 271.245 315.237C278.439 308.047 287.18 304.449 297.469 304.449C307.619 304.449 316.284 307.976 323.477 315.021ZM286.042 330.038C283.086 333.282 281.606 337.083 281.606 341.452C281.606 345.681 283.158 349.28 286.258 352.24C289.354 355.336 293.096 356.892 297.465 356.892C301.833 356.892 305.5 355.412 308.46 352.451C311.708 349.208 313.324 345.541 313.324 341.452C313.324 337.083 311.704 333.277 308.46 330.038C305.644 327.078 301.977 325.593 297.465 325.593C292.953 325.593 289.151 327.073 286.042 330.038ZM335.107 293.453H79.039L56.6213 81.3708H56.837L50.2778 21.1081H1.64478V-0.0367432H69.5239L77.9818 80.3135H357.728L335.107 293.453ZM221.551 226.213H189.834V183.082H157.49L205.489 121.127L253.272 183.082H221.555L221.551 226.213ZM83.0523 341.452C83.0523 331.163 86.6554 322.422 93.8404 315.237C101.025 308.047 109.775 304.449 120.056 304.449C130.628 304.449 139.302 308.047 146.064 315.237C153.257 322.422 156.852 331.167 156.852 341.452C156.852 351.745 153.257 360.343 146.064 367.253C139.298 374.442 130.628 378.037 120.056 378.037C109.771 378.037 101.025 374.442 93.8404 367.253C86.6554 359.78 83.0523 351.183 83.0523 341.452ZM120.056 325.593C115.548 325.593 111.737 327.078 108.642 330.038C105.686 333.282 104.197 337.083 104.197 341.452C104.197 345.681 105.749 349.28 108.857 352.24C111.953 355.336 115.687 356.892 120.056 356.892C124.424 356.892 128.027 355.412 130.844 352.451L131.267 352.24C134.231 349.28 135.711 345.681 135.711 341.452C135.711 336.944 134.159 333.134 131.059 330.038V329.822C128.235 327.006 124.576 325.593 120.056 325.593Z" fill="white"/>
</g>
</g>
</g>
</g>
</mask>
<g mask="url(#mask0_1_65)">
<path d="M998.355 -0.0367432H1.64478V378.037H998.355V-0.0367432Z" fill="url(#paint0_linear_1_65)"/>
</g>
</g>
<path d="M397.956 161.963C397.956 147.863 405.456 134.863 420.456 122.963L447.906 141.263C435.506 149.063 429.306 157.313 429.306 166.013C429.306 169.713 430.556 173.613 433.056 177.713C435.556 181.813 438.056 185.863 440.556 189.863C443.156 193.863 444.456 197.613 444.456 201.113C444.456 215.613 434.456 226.813 414.456 234.713L407.256 224.963C412.156 222.263 415.556 219.663 417.456 217.163C419.356 214.663 420.306 211.913 420.306 208.913C420.306 205.913 419.106 202.563 416.706 198.863C414.406 195.063 411.856 191.613 409.056 188.513C406.356 185.413 403.806 181.463 401.406 176.663C399.106 171.863 397.956 166.963 397.956 161.963ZM490.756 147.113C514.956 156.813 527.056 168.863 527.056 183.263C527.056 190.763 524.906 196.213 520.606 199.613C516.406 202.913 508.556 204.563 497.056 204.563C489.756 204.563 483.756 204.013 479.056 202.913C477.156 207.613 476.206 212.513 476.206 217.613C480.706 218.213 485.806 218.513 491.506 218.513C501.906 218.513 511.706 216.863 520.906 213.563L525.406 228.113C518.106 230.413 509.906 231.563 500.806 231.563C484.606 231.563 472.706 228.613 465.106 222.713C463.506 215.613 462.706 208.913 462.706 202.613C462.706 190.013 465.456 178.663 470.956 168.563C476.556 158.463 483.156 151.313 490.756 147.113ZM482.056 195.863C483.356 195.963 486.606 196.013 491.806 196.013C497.106 196.013 503.156 195.313 509.956 193.913C510.256 192.013 510.406 190.113 510.406 188.213C510.406 182.213 508.756 176.463 505.456 170.963C495.556 177.563 487.756 185.863 482.056 195.863ZM553.483 230.213L545.833 125.513L577.933 120.563L568.333 228.863L553.483 230.213ZM606.51 230.213L598.86 125.513L630.96 120.563L621.36 228.863L606.51 230.213ZM721.037 227.963L662.387 229.313L655.337 130.463L721.487 128.363L721.037 138.413L689.387 142.163L685.487 173.213L717.437 172.913L718.187 186.413L684.287 183.863L680.237 217.313L721.637 212.513L721.037 227.963ZM752.458 231.413C750.758 231.413 749.508 231.363 748.708 231.263C745.308 228.963 742.558 225.563 740.458 221.063C738.458 216.463 737.458 211.713 737.458 206.813C737.458 200.413 739.858 195.763 744.658 192.863C749.558 189.963 758.508 188.513 771.508 188.513C776.308 188.513 781.308 188.863 786.508 189.563L786.208 186.263C785.808 182.263 783.908 179.113 780.508 176.813C777.108 174.413 772.758 173.213 767.458 173.213C762.158 173.213 756.858 174.863 751.558 178.163L744.958 156.413C753.558 152.913 763.358 151.163 774.358 151.163C785.358 151.163 794.058 153.663 800.458 158.663C806.858 163.563 810.058 171.263 810.058 181.763C810.058 184.163 809.958 186.063 809.758 187.463L805.558 228.863L790.708 230.213L788.458 208.463H787.258C783.858 215.663 779.158 221.313 773.158 225.413C767.158 229.413 760.258 231.413 752.458 231.413ZM787.108 195.863L779.158 195.713C772.558 195.713 767.158 196.063 762.958 196.763C761.558 199.563 760.858 202.063 760.858 204.263C760.858 206.463 761.158 208.563 761.758 210.563C762.358 212.563 763.008 213.913 763.708 214.613C775.708 212.713 783.508 206.463 787.108 195.863ZM828.219 178.613C828.219 165.813 834.969 154.113 848.469 143.513L873.069 160.013C861.969 167.113 856.419 174.563 856.419 182.363C856.419 186.463 858.669 191.813 863.169 198.413C867.769 205.013 870.069 210.163 870.069 213.863C870.069 226.963 861.069 237.063 843.069 244.163L836.469 235.313C844.369 231.013 848.319 226.263 848.319 221.063C848.319 216.163 844.969 209.963 838.269 202.463C835.769 199.663 833.469 196.113 831.369 191.813C829.269 187.513 828.219 183.113 828.219 178.613ZM917.611 147.113C941.811 156.813 953.911 168.863 953.911 183.263C953.911 190.763 951.761 196.213 947.461 199.613C943.261 202.913 935.411 204.563 923.911 204.563C916.611 204.563 910.611 204.013 905.911 202.913C904.011 207.613 903.061 212.513 903.061 217.613C907.561 218.213 912.661 218.513 918.361 218.513C928.761 218.513 938.561 216.863 947.761 213.563L952.261 228.113C944.961 230.413 936.761 231.563 927.661 231.563C911.461 231.563 899.561 228.613 891.961 222.713C890.361 215.613 889.561 208.913 889.561 202.613C889.561 190.013 892.311 178.663 897.811 168.563C903.411 158.463 910.011 151.313 917.611 147.113ZM908.911 195.863C910.211 195.963 913.461 196.013 918.661 196.013C923.961 196.013 930.011 195.313 936.811 193.913C937.111 192.013 937.261 190.113 937.261 188.213C937.261 182.213 935.611 176.463 932.311 170.963C922.411 177.563 914.611 185.863 908.911 195.863Z" fill="url(#paint1_linear_1_65)"/>
</g>
<defs>
<linearGradient id="paint0_linear_1_65" x1="1.60602" y1="133.463" x2="362.732" y2="182.315" gradientUnits="userSpaceOnUse">
<stop offset="0.0120854" stop-color="#4463A3"/>
<stop offset="1" stop-color="#01859A"/>
</linearGradient>
<linearGradient id="paint1_linear_1_65" x1="390.606" y1="168.463" x2="897.106" y2="163.463" gradientUnits="userSpaceOnUse">
<stop stop-color="#4463A3"/>
<stop offset="0.914317" stop-color="#01859A"/>
</linearGradient>
<clipPath id="clip0_1_65">
<rect width="1000" height="378" fill="white"/>
</clipPath>
<clipPath id="clip1_1_65">
<rect width="996.71" height="378.073" fill="white" transform="translate(1.64478 -0.0367432)"/>
</clipPath>
<clipPath id="clip2_1_65">
<rect width="996.71" height="378.073" fill="white" transform="translate(1.64478 -0.0367432)"/>
</clipPath>
<clipPath id="clip3_1_65">
<rect width="996.71" height="378.073" fill="white" transform="translate(1.64478 -0.0367432)"/>
</clipPath>
<clipPath id="clip4_1_65">
<rect width="356.083" height="378.073" fill="white" transform="translate(1.64478 -0.0367432)"/>
</clipPath>
<clipPath id="clip5_1_65">
<rect width="356.083" height="378.073" fill="white" transform="translate(1.64478 -0.0367432)"/>
</clipPath>
</defs>
</svg>
