<svg width="1000" height="378" viewBox="0 0 1000 378" fill="none" xmlns="http://www.w3.org/2000/svg">
<g clip-path="url(#clip0_618_1203)">
<g clip-path="url(#clip1_618_1203)">
<g clip-path="url(#clip2_618_1203)">
<mask id="mask0_618_1203" style="mask-type:luminance" maskUnits="userSpaceOnUse" x="1" y="0" width="997" height="379">
<g clip-path="url(#clip3_618_1203)">
<g clip-path="url(#clip4_618_1203)">
<g clip-path="url(#clip5_618_1203)">
<g clip-path="url(#clip6_618_1203)">
<g clip-path="url(#clip7_618_1203)">
<g clip-path="url(#clip8_618_1203)">
<path d="M470.585 140.836C470.585 145.588 469.56 149.426 467.51 152.352C465.434 155.303 462.458 156.778 458.582 156.778C455.081 156.778 451.955 155.465 449.205 152.84C450.955 151.589 452.306 149.776 453.256 147.401C454.181 145.025 454.644 142.587 454.644 140.086C454.644 136.21 453.393 133.022 450.893 130.521C448.392 128.021 444.579 126.77 439.452 126.77C433.826 126.77 429.762 128.333 427.261 131.459C424.761 134.585 423.51 138.773 423.51 144.025C423.51 150.151 424.986 155.153 427.937 159.029C430.862 162.905 434.513 166.368 438.89 169.419C443.266 172.495 447.992 175.408 453.068 178.159C458.12 180.909 462.833 184.16 467.209 187.911C471.586 191.662 475.249 196.189 478.2 201.49C481.126 206.816 482.589 213.606 482.589 221.858C482.589 228.86 481.438 234.861 479.138 239.863C476.812 244.864 473.649 248.952 469.648 252.128C465.647 255.329 460.895 257.655 455.394 259.105C449.892 260.53 443.891 261.243 437.389 261.243C431.638 261.243 425.986 260.656 420.435 259.48C414.858 258.28 409.919 256.329 405.618 253.629C401.292 250.953 397.816 247.39 395.19 242.938C392.565 238.512 391.252 233.111 391.252 226.734C391.252 222.483 391.852 218.607 393.052 215.106C394.228 211.605 395.853 208.667 397.929 206.291C399.979 203.916 402.38 202.065 405.131 200.74C407.881 199.439 410.757 198.789 413.758 198.789C415.258 198.789 416.884 198.977 418.634 199.352C420.385 199.727 422.135 200.377 423.886 201.302C425.636 202.253 427.261 203.54 428.762 205.166C430.262 206.791 431.45 208.792 432.325 211.167C430.075 211.167 427.824 211.418 425.574 211.918C423.323 212.418 421.297 213.293 419.497 214.543C417.671 215.794 416.196 217.507 415.071 219.682C413.945 221.883 413.383 224.671 413.383 228.047C413.383 234.549 415.383 239.2 419.384 242.001C423.385 244.826 428.387 246.239 434.388 246.239C440.39 246.239 445.016 244.801 448.267 241.926C451.518 239.05 453.143 234.111 453.143 227.109C453.143 220.607 451.793 215.106 449.092 210.605C446.417 206.104 443.016 202.165 438.89 198.789C434.763 195.413 430.362 192.25 425.686 189.299C420.985 186.373 416.571 183.185 412.445 179.734C408.319 176.308 404.918 172.282 402.242 167.656C399.542 163.03 398.191 157.341 398.191 150.589C398.191 139.711 401.817 131.421 409.069 125.72C416.321 120.043 426.199 117.205 438.702 117.205C440.452 117.205 443.116 117.355 446.692 117.655C450.243 117.98 453.806 118.918 457.382 120.469C460.933 122.044 464.021 124.42 466.647 127.595C469.273 130.796 470.585 135.21 470.585 140.836ZM535.853 243.238C539.604 243.238 542.917 242.738 545.793 241.738C548.668 240.738 551.232 239.387 553.482 237.687C555.733 236.011 557.796 234.011 559.671 231.685C561.547 229.385 563.36 226.922 565.11 224.296H571.487C569.737 228.672 567.636 232.923 565.185 237.049C562.76 241.175 559.759 244.864 556.183 248.115C552.632 251.366 548.481 253.991 543.73 255.992C538.978 257.992 533.414 258.993 527.038 258.993C521.661 258.993 516.723 258.18 512.221 256.554C507.72 254.929 503.807 252.391 500.481 248.94C497.18 245.514 494.617 241.075 492.791 235.624C490.991 230.197 490.091 223.671 490.091 216.044C490.091 210.667 490.678 204.878 491.853 198.677C493.054 192.5 495.154 186.786 498.155 181.535C501.156 176.283 505.22 171.907 510.346 168.406C515.472 164.905 521.974 163.155 529.851 163.155C535.853 163.155 540.479 164.093 543.73 165.968C546.981 167.844 549.381 170.032 550.932 172.532C552.507 175.033 553.445 177.471 553.745 179.847C554.07 182.222 554.232 183.91 554.232 184.911C554.232 190.537 553.195 195.476 551.119 199.727C549.069 203.978 546.318 207.566 542.867 210.492C539.441 213.443 535.502 215.694 531.051 217.244C526.625 218.819 522.099 219.732 517.473 219.982C517.598 228.359 518.998 234.324 521.674 237.874C524.375 241.45 529.101 243.238 535.853 243.238ZM539.791 185.098C539.791 180.722 539.041 177.621 537.541 175.796C536.04 173.995 534.415 173.095 532.664 173.095C530.539 173.095 528.601 174.12 526.85 176.171C525.1 178.246 523.562 180.997 522.237 184.423C520.936 187.874 519.873 191.912 519.048 196.539C518.248 201.165 517.723 205.979 517.473 210.98C520.599 210.73 523.537 209.88 526.288 208.429C529.038 207.004 531.414 205.128 533.414 202.803C535.415 200.502 536.978 197.851 538.103 194.851C539.228 191.85 539.791 188.599 539.791 185.098ZM565.11 130.334L592.117 126.583V227.859C592.117 233.111 592.83 236.574 594.256 238.25C595.706 239.95 598.244 240.8 601.87 240.8C605.496 240.8 608.522 239.237 610.947 236.112C613.398 232.986 614.811 229.047 615.186 224.296H623.063C622.063 231.923 620.312 238.012 617.812 242.563C615.311 247.139 612.498 250.64 609.372 253.066C606.246 255.517 603.058 257.117 599.807 257.867C596.556 258.617 593.68 258.993 591.18 258.993C581.552 258.993 574.8 256.329 570.924 251.003C567.048 245.702 565.11 238.675 565.11 229.922V130.334ZM615.149 130.334L642.156 126.583V227.859C642.156 233.111 642.881 236.574 644.331 238.25C645.757 239.95 648.282 240.8 651.908 240.8C655.534 240.8 658.572 239.237 661.023 236.112C663.449 232.986 664.849 229.047 665.224 224.296H673.101C672.101 231.923 670.351 238.012 667.85 242.563C665.349 247.139 662.536 250.64 659.41 253.066C656.284 255.517 653.096 257.117 649.845 257.867C646.594 258.617 643.719 258.993 641.218 258.993C631.59 258.993 624.839 256.329 620.963 251.003C617.087 245.702 615.149 238.675 615.149 229.922V130.334ZM749.434 224.108L754.123 225.984C752.747 231.61 750.559 236.612 747.558 240.988C744.558 245.364 740.932 249.052 736.681 252.053C732.429 255.054 727.741 257.342 722.614 258.918C717.488 260.468 712.112 261.243 706.485 261.243C699.358 261.243 693.169 260.08 687.918 257.755C682.666 255.454 678.265 252.366 674.714 248.49C671.138 244.614 668.475 240.175 666.725 235.174C664.974 230.172 664.099 224.984 664.099 219.607C664.099 215.481 664.637 211.292 665.712 207.041C666.762 202.79 668.35 198.814 670.476 195.113C672.601 191.437 675.264 188.224 678.465 185.473C681.641 182.722 685.355 180.784 689.606 179.659C683.604 175.908 679.265 171.595 676.59 166.718C673.889 161.842 672.539 156.716 672.539 151.339C672.539 147.088 673.351 142.862 674.977 138.661C676.602 134.485 679.015 130.796 682.216 127.595C685.392 124.42 689.331 121.831 694.032 119.831C698.708 117.83 704.047 116.83 710.049 116.83C713.675 116.83 717.113 117.243 720.364 118.068C723.615 118.868 726.49 120.206 728.991 122.081C731.492 123.957 733.492 126.37 734.993 129.321C736.493 132.247 737.243 135.835 737.243 140.086C737.243 144.462 736.431 148.276 734.805 151.527C733.18 154.778 730.742 156.403 727.491 156.403C726.115 156.403 724.615 156.053 722.989 155.353C721.364 154.678 719.676 153.465 717.926 151.714C719.676 151.089 721.089 149.489 722.164 146.913C723.215 144.362 723.74 141.774 723.74 139.148C723.74 136.773 723.34 134.835 722.539 133.334C721.714 131.834 720.676 130.671 719.426 129.846C718.176 129.046 716.863 128.521 715.487 128.271C714.112 128.021 712.862 127.895 711.736 127.895C708.986 127.895 706.61 128.458 704.61 129.583C702.609 130.709 700.984 132.209 699.733 134.085C698.483 135.96 697.545 138.148 696.92 140.649C696.295 143.15 695.982 145.713 695.982 148.338C695.982 151.839 696.482 155.215 697.483 158.466C698.483 161.717 700.021 164.718 702.096 167.468C704.147 170.219 706.735 172.62 709.861 174.67C712.987 176.746 716.675 178.346 720.926 179.472C716.925 180.472 713.362 182.247 710.236 184.798C707.11 187.374 704.522 190.437 702.472 193.988C700.396 197.564 698.833 201.415 697.783 205.541C696.708 209.667 696.17 213.668 696.17 217.544C696.17 220.92 696.608 224.171 697.483 227.297C698.358 230.423 699.708 233.136 701.534 235.436C703.334 237.762 705.647 239.637 708.473 241.063C711.274 242.513 714.675 243.238 718.676 243.238C721.677 243.238 724.802 242.801 728.053 241.926C731.304 241.05 734.342 239.8 737.168 238.175C739.969 236.549 742.47 234.549 744.67 232.173C746.846 229.797 748.434 227.109 749.434 224.108ZM799.322 164.093H826.329V227.859C826.329 233.111 827.042 236.574 828.467 238.25C829.918 239.95 832.456 240.8 836.082 240.8C839.708 240.8 842.734 239.237 845.159 236.112C847.61 232.986 849.023 229.047 849.398 224.296H857.275C856.275 231.923 854.524 238.012 852.024 242.563C849.523 247.139 846.71 250.64 843.584 253.066C840.458 255.517 837.27 257.117 834.019 257.867C830.768 258.617 827.892 258.993 825.391 258.993C818.765 258.993 813.726 257.455 810.275 254.379C806.849 251.328 804.448 247.114 803.073 241.738C802.073 243.864 800.885 245.952 799.51 248.002C798.134 250.078 796.471 251.928 794.521 253.554C792.595 255.179 790.345 256.492 787.769 257.492C785.218 258.492 782.255 258.993 778.879 258.993C774.878 258.993 770.94 258.242 767.064 256.742C763.188 255.242 759.649 252.803 756.448 249.428C753.272 246.052 750.709 241.575 748.759 235.999C746.833 230.448 745.871 223.608 745.871 215.481C745.871 209.73 746.521 203.791 747.821 197.664C749.146 191.537 751.209 185.911 754.01 180.784C756.836 175.658 760.524 171.432 765.076 168.106C769.652 164.805 775.191 163.155 781.692 163.155C783.193 163.155 784.818 163.242 786.569 163.417C788.319 163.617 790.007 164.055 791.633 164.73C793.258 165.43 794.758 166.431 796.134 167.731C797.509 169.056 798.572 170.844 799.322 173.095V164.093ZM799.322 224.296V182.097C799.197 181.597 798.947 180.934 798.572 180.109C798.197 179.309 797.634 178.496 796.884 177.671C796.134 176.871 795.196 176.183 794.071 175.608C792.945 175.058 791.633 174.783 790.132 174.783C787.131 174.783 784.531 176.058 782.33 178.609C780.155 181.185 778.404 184.385 777.079 188.211C775.778 192.012 774.816 196.189 774.19 200.74C773.565 205.316 773.253 209.667 773.253 213.793C773.253 220.42 773.753 225.571 774.753 229.247C775.753 232.948 776.966 235.636 778.392 237.312C779.842 239.012 781.38 240.025 783.005 240.35C784.631 240.65 786.006 240.8 787.131 240.8C788.507 240.8 789.907 240.45 791.332 239.75C792.783 239.075 794.096 238.05 795.271 236.674C796.471 235.299 797.447 233.573 798.197 231.498C798.947 229.447 799.322 227.047 799.322 224.296ZM919.354 224.296H927.231C923.355 230.172 919.229 234.986 914.853 238.737C910.476 242.488 906.413 245.677 902.662 248.302C899.411 252.178 895.347 254.929 890.471 256.554C885.595 258.18 880.906 258.993 876.405 258.993C870.904 258.993 866.09 258.117 861.964 256.367C857.838 254.616 854.399 252.391 851.648 249.69C848.898 247.014 846.835 244.014 845.459 240.688C844.084 237.387 843.396 234.236 843.396 231.235C843.396 227.859 844.046 224.984 845.347 222.608C846.672 220.232 848.335 218.544 850.336 217.544C853.962 208.167 856.987 198.877 859.413 189.674C861.864 180.497 863.589 171.282 864.589 162.029L891.596 158.279C894.722 170.407 897.348 180.247 899.474 187.799C901.599 195.376 903.287 201.69 904.537 206.741C905.788 211.818 906.663 216.231 907.163 219.982C907.663 223.733 907.913 227.922 907.913 232.548V233.673C912.414 230.548 916.228 227.422 919.354 224.296ZM865.152 225.984C865.152 227.859 864.589 229.572 863.464 231.123C862.339 232.698 860.713 233.486 858.588 233.486C857.587 233.486 856.55 233.323 855.474 232.998C854.424 232.698 853.586 232.048 852.961 231.048C853.962 235.424 855.549 238.7 857.725 240.875C859.926 243.076 863.089 244.176 867.215 244.176C870.841 244.176 873.967 243.213 876.593 241.288C879.218 239.337 880.531 235.924 880.531 231.048C880.531 227.672 880.344 224.634 879.968 221.933C879.593 219.257 878.993 216.231 878.168 212.855C877.368 209.48 876.305 205.478 874.98 200.852C873.679 196.226 872.091 190.412 870.216 183.41C868.965 189.412 867.428 195.188 865.602 200.74C863.802 206.316 861.901 212.105 859.901 218.107C861.276 218.732 862.489 219.695 863.539 220.995C864.614 222.32 865.152 223.983 865.152 225.984ZM962.078 243.238C965.829 243.238 969.142 242.738 972.018 241.738C974.893 240.738 977.457 239.387 979.707 237.687C981.958 236.011 984.021 234.011 985.896 231.685C987.772 229.385 989.585 226.922 991.335 224.296H997.712C995.962 228.672 993.873 232.923 991.448 237.049C988.997 241.175 985.996 244.864 982.445 248.115C978.869 251.366 974.706 253.991 969.955 255.992C965.203 257.992 959.639 258.993 953.263 258.993C947.886 258.993 942.948 258.18 938.446 256.554C933.945 254.929 930.044 252.391 926.743 248.94C923.417 245.514 920.854 241.075 919.054 235.624C917.228 230.197 916.316 223.671 916.316 216.044C916.316 210.667 916.916 204.878 918.116 198.677C919.291 192.5 921.379 186.786 924.38 181.535C927.381 176.283 931.444 171.907 936.571 168.406C941.697 164.905 948.199 163.155 956.076 163.155C962.078 163.155 966.704 164.093 969.955 165.968C973.205 167.844 975.619 170.032 977.194 172.532C978.744 175.033 979.682 177.471 980.007 179.847C980.307 182.222 980.457 183.91 980.457 184.911C980.457 190.537 979.432 195.476 977.382 199.727C975.306 203.978 972.555 207.566 969.129 210.492C965.679 213.443 961.74 215.694 957.314 217.244C952.863 218.819 948.324 219.732 943.698 219.982C943.823 228.359 945.236 234.324 947.936 237.874C950.612 241.45 955.326 243.238 962.078 243.238ZM966.016 185.098C966.016 180.722 965.266 177.621 963.766 175.796C962.265 173.995 960.64 173.095 958.889 173.095C956.764 173.095 954.826 174.12 953.075 176.171C951.325 178.246 949.799 180.997 948.499 184.423C947.174 187.874 946.111 191.912 945.311 196.539C944.485 201.165 943.948 205.979 943.698 210.98C946.824 210.73 949.762 209.88 952.513 208.429C955.263 207.004 957.639 205.128 959.639 202.803C961.64 200.502 963.203 197.851 964.328 194.851C965.453 191.85 966.016 188.599 966.016 185.098Z" fill="white"/>
</g>
</g>
</g>
</g>
</g>
</g>
</mask>
<g mask="url(#mask0_618_1203)">
<path d="M997.749 0H1.03906V378.073H997.749V0Z" fill="url(#paint0_linear_618_1203)"/>
</g>
<mask id="mask1_618_1203" style="mask-type:luminance" maskUnits="userSpaceOnUse" x="1" y="0" width="997" height="379">
<g clip-path="url(#clip9_618_1203)">
<g clip-path="url(#clip10_618_1203)">
<g clip-path="url(#clip11_618_1203)">
<g clip-path="url(#clip12_618_1203)">
<path fill-rule="evenodd" clip-rule="evenodd" d="M301.727 214.836V206.378H322.656L333.651 101.495H79.4905L86.6756 168.317H108.878V176.775H87.5256L95.5606 251.205H296.436V259.663H96.4064L97.6793 272.349H315.678L321.814 214.836H301.727ZM322.872 315.058C330.196 322.386 333.867 331.2 333.867 341.489C333.867 351.499 330.133 360.096 322.66 367.29C315.754 374.479 307.157 378.073 296.863 378.073C286.57 378.073 277.833 374.479 270.64 367.29C263.455 359.817 259.86 351.22 259.86 341.489C259.86 331.2 263.455 322.458 270.64 315.273C277.833 308.084 286.574 304.485 296.863 304.485C307.013 304.485 315.678 308.012 322.872 315.058ZM285.437 330.075C282.481 333.318 281.001 337.12 281.001 341.489C281.001 345.718 282.553 349.317 285.652 352.277C288.748 355.372 292.491 356.929 296.859 356.929C301.228 356.929 304.894 355.449 307.854 352.488C311.102 349.245 312.718 345.578 312.718 341.489C312.718 337.12 311.098 333.314 307.854 330.075C305.038 327.114 301.372 325.63 296.859 325.63C292.347 325.63 288.545 327.11 285.437 330.075ZM334.501 293.49H78.4333L56.0156 81.4075H56.2313L49.6721 21.1448H1.03906V0H68.9181L77.3761 80.3503H357.122L334.501 293.49ZM220.945 226.249H189.228V183.118H156.885L204.884 121.164L252.667 183.118H220.949L220.945 226.249ZM82.4466 341.489C82.4466 331.2 86.0497 322.458 93.2347 315.273C100.42 308.084 109.169 304.485 119.45 304.485C130.022 304.485 138.696 308.084 145.458 315.273C152.652 322.458 156.246 331.204 156.246 341.489C156.246 351.782 152.652 360.379 145.458 367.29C138.692 374.479 130.022 378.073 119.45 378.073C109.165 378.073 100.42 374.479 93.2347 367.29C86.0497 359.817 82.4466 351.22 82.4466 341.489ZM119.45 325.63C114.942 325.63 111.132 327.114 108.036 330.075C105.08 333.318 103.591 337.12 103.591 341.489C103.591 345.718 105.143 349.317 108.252 352.277C111.347 355.372 115.081 356.929 119.45 356.929C123.819 356.929 127.422 355.449 130.238 352.488L130.661 352.277C133.625 349.317 135.106 345.718 135.106 341.489C135.106 336.981 133.554 333.17 130.454 330.075V329.859C127.629 327.043 123.971 325.63 119.45 325.63Z" fill="white"/>
</g>
</g>
</g>
</g>
</mask>
<g mask="url(#mask1_618_1203)">
<path d="M997.749 0H1.03906V378.073H997.749V0Z" fill="url(#paint1_linear_618_1203)"/>
</g>
</g>
</g>
</g>
<defs>
<linearGradient id="paint0_linear_618_1203" x1="54.8614" y1="189.037" x2="938.944" y2="189.037" gradientUnits="userSpaceOnUse">
<stop stop-color="white"/>
<stop offset="0.498" stop-color="white"/>
<stop offset="1" stop-color="white"/>
</linearGradient>
<linearGradient id="paint1_linear_618_1203" x1="1.03906" y1="218.526" x2="996.039" y2="263.119" gradientUnits="userSpaceOnUse">
<stop stop-color="white"/>
<stop offset="1" stop-color="white"/>
</linearGradient>
<clipPath id="clip0_618_1203">
<rect width="1000" height="378" fill="white"/>
</clipPath>
<clipPath id="clip1_618_1203">
<rect width="1000" height="378" fill="white" transform="translate(-0.605957 0.0371094)"/>
</clipPath>
<clipPath id="clip2_618_1203">
<rect width="996.71" height="378.073" fill="white" transform="translate(1.03906)"/>
</clipPath>
<clipPath id="clip3_618_1203">
<rect width="996.71" height="378.073" fill="white" transform="translate(1.03906)"/>
</clipPath>
<clipPath id="clip4_618_1203">
<rect width="996.71" height="378.073" fill="white" transform="translate(1.03906)"/>
</clipPath>
<clipPath id="clip5_618_1203">
<rect width="606.535" height="144.413" fill="white" transform="translate(391.214 116.83)"/>
</clipPath>
<clipPath id="clip6_618_1203">
<rect width="606.535" height="144.413" fill="white" transform="translate(391.214 116.83)"/>
</clipPath>
<clipPath id="clip7_618_1203">
<rect width="606.535" height="144.413" fill="white" transform="translate(391.214 116.83)"/>
</clipPath>
<clipPath id="clip8_618_1203">
<rect width="606.535" height="144.413" fill="white" transform="translate(391.214 116.83)"/>
</clipPath>
<clipPath id="clip9_618_1203">
<rect width="996.71" height="378.073" fill="white" transform="translate(1.03906)"/>
</clipPath>
<clipPath id="clip10_618_1203">
<rect width="996.71" height="378.073" fill="white" transform="translate(1.03906)"/>
</clipPath>
<clipPath id="clip11_618_1203">
<rect width="356.083" height="378.073" fill="white" transform="translate(1.03906)"/>
</clipPath>
<clipPath id="clip12_618_1203">
<rect width="356.083" height="378.073" fill="white" transform="translate(1.03906)"/>
</clipPath>
</defs>
</svg>
