<svg width="35" height="35" viewBox="0 0 18 13" fill="none" xmlns="http://www.w3.org/2000/svg">
<path d="M4 13C3.30556 13 2.71528 12.7569 2.22917 12.2708C1.74306 11.7847 1.5 11.1944 1.5 10.5H0V0.5H13V3.5H15.5L18 7V10.5H16.5C16.5 11.1944 16.2569 11.7847 15.7708 12.2708C15.2847 12.7569 14.6944 13 14 13C13.3056 13 12.7153 12.7569 12.2292 12.2708C11.7431 11.7847 11.5 11.1944 11.5 10.5H6.5C6.5 11.1944 6.25694 11.7847 5.77083 12.2708C5.28472 12.7569 4.69444 13 4 13ZM4 11.5C4.28333 11.5 4.52083 11.4042 4.7125 11.2125C4.90417 11.0208 5 10.7833 5 10.5C5 10.2167 4.90417 9.97917 4.7125 9.7875C4.52083 9.59583 4.28333 9.5 4 9.5C3.71667 9.5 3.47917 9.59583 3.2875 9.7875C3.09583 9.97917 3 10.2167 3 10.5C3 10.7833 3.09583 11.0208 3.2875 11.2125C3.47917 11.4042 3.71667 11.5 4 11.5ZM1.5 9H2C2.23611 8.68056 2.52778 8.43403 2.875 8.26042C3.22222 8.08681 3.59722 8 4 8C4.40278 8 4.77778 8.08681 5.125 8.26042C5.47222 8.43403 5.76062 8.68056 5.99019 9H11.5V2H1.5V9ZM14 11.5C14.2833 11.5 14.5208 11.4042 14.7125 11.2125C14.9042 11.0208 15 10.7833 15 10.5C15 10.2167 14.9042 9.97917 14.7125 9.7875C14.5208 9.59583 14.2833 9.5 14 9.5C13.7167 9.5 13.4792 9.59583 13.2875 9.7875C13.0958 9.97917 13 10.2167 13 10.5C13 10.7833 13.0958 11.0208 13.2875 11.2125C13.4792 11.4042 13.7167 11.5 14 11.5ZM13 7.5L16.5 7.47917L14.7292 5H13V7.5Z" fill="#01859A"/>
</svg>
